<svg xmlns="http://www.w3.org/2000/svg" viewBox="0 0 177.98 65.5"><path d="M33.47 12.48l-2.66 2.8c-.3-.25-4.33-3.62-11.85-3.37-5.22.18-9.43 1.54-12.4 4.99C3.58 20.35 1.69 24.97.6 31.09c-1.06 6.09-.72 10.88 1.02 14.36C3.37 48.93 6.85 51 12.08 51c4.62 0 8.7-1.48 12.25-3.78.21-.13.39-.27.59-.41l-.64 3.63h11.03l6.64-37.97h-8.49zM15.99 43.22c-2.31 0-3.91-.8-4.97-2.41-1.06-1.6-1.16-4.84-.29-9.69.85-4.81 2.36-7.76 3.99-9.37 1.63-1.62 3.07-2.44 5.3-2.7 5.65-.65 8.9 3.17 8.38 6.55l-1.93 10.94c-1.32 5.56-8.17 6.69-10.48 6.69zm25.79 7.2h10.85L61.5 0H50.67l-8.89 50.42zm47.96-37.94l-13.55 31.5-2.44-31.5H62.57l4.85 38.08H82.9l18.31-38.08H89.74zm40.68.03l-12.83 29.47-2.52-29.51-11.3.03 4.14 38.06h6.41c-1.47 3.18-3.36 5.25-5.68 6.2-2.34.96-5.73 1.45-10.16 1.45L97.2 65.5c6.57 0 12.04-.96 16.39-2.87 4.36-1.92 7.95-5.94 10.77-12.06l17.37-38.06h-11.3zm42.52 18.4c-2.27-1.58-5.74-2.71-10.41-3.37-3.32-.49-5.96-.98-7.92-1.46s-2.82-1.49-2.59-3.03c.15-1.22.88-2.18 2.2-2.89 1.32-.71 3.13-1.06 5.44-1.06 2.46 0 4.41.55 5.84 1.64 1.43 1.09 2.24 2.6 2.41 4.53l10.05-3.4c-.45-3.5-2.01-6.09-5.02-7.58-3.01-1.49-6.98-2.28-12.1-2.28s-9.51.89-13.18 2.67c-3.67 1.78-5.77 4.56-6.31 8.35-.56 3.83.28 6.6 2.5 8.3 2.23 1.7 5.5 2.85 9.83 3.45 3.51.62 6.3 1.18 8.35 1.69 2.06.5 2.95 1.55 2.7 3.13-.17 1.2-.95 2.17-2.33 2.91-1.38.74-3.27 1.11-5.67 1.11-2.72 0-4.82-.54-6.29-1.62s-2.28-2.69-2.41-4.83l-10.05 3.44c.36 3.68 2.13 6.29 5.3 7.82s7.27 2.4 12.3 2.4 9.46-1.04 13.28-2.91c3.82-1.87 6.03-4.83 6.63-8.88.56-3.81-.3-6.51-2.57-8.09z" fill="#204392"/></svg>