<svg xmlns="http://www.w3.org/2000/svg" width="245.277" height="51.651" viewBox="0 0 229.947 48.422"><g transform="translate(-93.598 -488.151)"><circle cx="222.62" cy="519.615" r="7.031" fill="none" stroke="#497cb1" stroke-width="4" stroke-linecap="round"/><circle cx="226.565" cy="519.615" r="11.033" fill="none" stroke="#f60" stroke-width="4" stroke-linecap="round"/><circle cx="222.62" cy="519.615" r="14.958" fill="none" stroke="#497cb1" stroke-width="4" stroke-linecap="round"/><path style="line-height:125%" d="M105.564 507.339c3.577 0 5.64 1.1 7.497 2.889.55.55 1.1.618 1.444.618 1.1 0 1.994-.894 1.994-1.994 0-.619-.275-1.032-.48-1.307-2.133-2.82-5.778-4.401-10.455-4.401-5.845 0-10.522 2.613-10.522 8.321 0 11.28 18.088 8.46 18.088 15.543 0 3.577-3.37 4.883-7.29 4.883-3.852 0-6.603-1.238-8.735-3.37-.55-.55-1.1-.687-1.513-.687-1.1 0-1.994.894-1.994 1.994 0 .482.137.825.481 1.307 1.788 2.27 6.121 4.952 11.76 4.952 6.534 0 11.692-2.82 11.692-9.079 0-11.003-18.087-8.321-18.087-15.543 0-3.163 3.026-4.126 6.12-4.126zm23.716-1.65c0-1.239-.963-2.201-2.201-2.201s-2.2.962-2.2 2.2v27.923c0 1.238.962 2.2 2.2 2.2 1.238 0 2.2-.962 2.2-2.2v-27.923zm-2.201-8.666c1.65 0 2.613-.963 2.613-2.614 0-1.994-.963-2.75-2.613-2.75s-2.614.756-2.614 2.75c0 1.651.963 2.614 2.614 2.614zm12.885 7.015h-2.682c-1.169 0-2.063.894-2.063 2.063 0 1.17.894 2.063 2.063 2.063h2.682v18.982c0 5.02 2.958 8.665 8.39 8.665 1.17 0 2.133-.894 2.133-2.063s-.963-2.063-2.132-2.063c-2.339 0-3.99-1.582-3.99-4.539v-18.982h4.471c1.17 0 2.063-.894 2.063-2.063 0-1.17-.894-2.063-2.063-2.063h-4.47v-7.221c0-1.17-.963-2.201-2.2-2.201-1.17 0-2.202 1.031-2.202 2.2v7.222zm15.426 15.543c0 11.554 5.708 16.574 14.855 16.574 6.121 0 9.698-2.82 10.73-3.851.412-.413.756-.825.756-1.582 0-1.1-.894-1.994-1.995-1.994-.55 0-.825.137-1.238.412-1.925 1.445-4.264 2.958-8.253 2.958-6.464 0-10.384-4.402-10.384-11.21h20.082c2.75 0 2.75-2.408 2.75-4.402 0-4.677-2.131-13.411-13.135-13.411-8.941 0-14.168 5.915-14.168 16.506zm22.97-2.545h-18.5c.413-6.12 3.714-9.972 9.698-9.972 7.083 0 8.803 5.02 8.803 9.972z" font-family="sans-serif" letter-spacing="0" word-spacing="0" fill="#f60"/><path style="line-height:125%;-inkscape-font-specification:'Bariol Bold'" d="M190.726 510.228v22.007c0 2.063 1.513 3.577 3.714 3.577 2.063 0 3.714-1.514 3.714-3.577v-22.007h4.608a3.082 3.082 0 003.094-3.095 3.082 3.082 0 00-3.094-3.095h-4.608v-4.264c0-3.026 1.925-5.158 5.708-5.158a3.229 3.229 0 003.232-3.233 3.229 3.229 0 00-3.232-3.232c-8.872 0-13.136 5.777-13.136 12.173v3.714h-1.444a3.082 3.082 0 00-3.095 3.095 3.082 3.082 0 003.095 3.095h1.444zm56.085-6.19h-1.581a3.082 3.082 0 00-3.095 3.095 3.082 3.082 0 003.095 3.095h1.581v16.23c0 5.433 3.783 9.354 9.904 9.354a3.229 3.229 0 003.232-3.233 3.229 3.229 0 00-3.232-3.232c-1.238 0-2.613-.894-2.613-2.476v-16.643h3.094a3.082 3.082 0 003.095-3.095 3.082 3.082 0 00-3.095-3.095h-3.094v-5.777c0-1.995-1.651-3.645-3.646-3.645-1.994 0-3.645 1.65-3.645 3.645v5.777zm47.361 15.612c0-11.28-5.777-16.575-15.061-16.575-9.285 0-15.062 5.296-15.062 16.575 0 11.21 5.777 16.505 15.062 16.505 9.284 0 15.061-5.295 15.061-16.505zm-7.496 0c0 6.74-2.614 10.178-7.565 10.178-4.952 0-7.566-3.439-7.566-10.178 0-6.81 2.614-10.248 7.566-10.248 4.951 0 7.565 3.439 7.565 10.248zm24.008-10.11c2.82 0 4.677 1.1 6.19 2.2.757.55 1.376.963 2.338.963 1.788 0 3.302-1.513 3.302-3.3 0-1.032-.276-1.514-.688-2.064-1.926-2.407-6.259-4.264-11.142-4.264-6.327 0-11.485 3.026-11.485 9.216 0 11.691 16.85 8.803 16.85 14.374 0 1.925-1.995 2.75-5.09 2.75-3.438 0-5.708-1.306-7.565-2.82-.756-.618-1.444-.825-2.132-.825-1.788 0-3.3 1.514-3.3 3.302 0 .825.274 1.444.824 2.132 1.72 2.132 6.259 4.814 12.173 4.814 7.084 0 12.586-3.301 12.586-9.766 0-11.348-16.918-9.01-16.918-14.099 0-1.72 1.513-2.613 4.057-2.613z" font-weight="bold" font-family="Bariol" letter-spacing="0" word-spacing="0" fill="#497cb1"/></g></svg>