<svg xmlns="http://www.w3.org/2000/svg" viewBox="0 0 576 512"><!--! Font Awesome Pro 6.4.0 by @fontawesome - https://fontawesome.com License - https://fontawesome.com/license (Commercial License) Copyright 2023 Fonticons, Inc.--><path fill="gray" d="M80 96c-44.2 0-80 35.8-80 80v160c0 44.2 35.8 80 80 80h92.2c-12.9-14.5-16.1-35.6-7.2-53.5l5.3-10.5H80c-8.8 0-16-7.2-16-16V176c0-8.8 7.2-16 16-16h139.2l80-64H80zm384 256H324.8l-80 64H464c44.2 0 80-35.8 80-80v-16c17.7 0 32-14.3 32-32v-64c0-17.7-14.3-32-32-32v-16c0-44.2-35.8-80-80-80h-92.2c13 14.5 16.1 35.6 7.2 53.5l-5.3 10.5H464c8.8 0 16 7.2 16 16v160c0 8.8-7.2 16-16 16zM346.1 115.6c-5.8-4.7-14.2-4.7-20.1-.1l-160 128c-5.3 4.2-7.4 11.4-5.1 17.8S169.2 272 176 272h70.1l-52.4 104.8c-3.4 6.7-1.6 14.9 4.3 19.6s14.2 4.7 20.1.1l160-128c5.3-4.2 7.4-11.4 5.1-17.8s-8.3-10.7-15.1-10.7h-70.2l52.4-104.8c3.4-6.7 1.6-14.9-4.2-19.6z"/></svg>