<svg fill="none" height="46" viewBox="0 0 36 46" width="36" xmlns="http://www.w3.org/2000/svg"><path d="m4.69795 45.5974c-1.16368 0-2.15758-.4121-2.98171-1.2362-.824174-.8242-1.23626-1.8181-1.23626-2.9817v-21.8973c0-1.1637.412086-2.1576 1.23626-2.9817.82413-.8242 1.81803-1.2363 2.98171-1.2363h2.78203v-4.6667c0-2.91359 1.02157-5.39198 3.06472-7.43513 2.0432-2.04314 4.5216-3.0647138 7.4352-3.0647138 2.9137 0 5.3921 1.0215738 7.4352 3.0647138 2.0432 2.04315 3.0648 4.52154 3.0648 7.43513v4.6667h2.782c1.1637 0 2.1576.4121 2.9817 1.2363.8242.8241 1.2363 1.818 1.2363 2.9817v21.8973c0 1.1636-.4121 2.1575-1.2363 2.9817-.8241.8241-1.818 1.2362-2.9817 1.2362zm0-3.4999h26.56395c.2094 0 .3814-.0673.5161-.202.1346-.1346.2019-.3066.2019-.516v-21.8973c0-.2094-.0673-.3815-.2019-.5161-.1347-.1346-.3067-.2019-.5161-.2019h-26.56395c-.20942 0-.38144.0673-.51608.2019-.13463.1346-.20195.3067-.20195.5161v21.8973c0 .2094.06732.3814.20195.516.13464.1347.30666.202.51608.202zm13.28195-7.5834c1.1338 0 2.0978-.3971 2.892-1.1913s1.1913-1.7582 1.1913-2.892c0-1.1337-.3971-2.0977-1.1913-2.8919s-1.7582-1.1914-2.892-1.1914c-1.1337 0-2.0977.3972-2.8919 1.1914s-1.1914 1.7582-1.1914 2.8919c0 1.1338.3972 2.0978 1.1914 2.892s1.7582 1.1913 2.8919 1.1913zm-7-19.2499h14v-4.6667c0-1.9444-.6805-3.59718-2.0416-4.95829-1.3612-1.36112-3.0139-2.04167-4.9584-2.04167-1.9444 0-3.5972.68055-4.9583 2.04167-1.3611 1.36111-2.0417 3.01389-2.0417 4.95829z" fill="#4193df"/></svg>