<svg fill="none" height="93" width="142" xmlns="http://www.w3.org/2000/svg"><g clip-rule="evenodd" fill-rule="evenodd"><path d="M84.721 33.553c0 1.705-.451 3.686-1.77 5.435h3.72V11.64H74.773v11.176c6.43 1.898 9.947 5.822 9.947 10.737z" fill="#2f489a"/><path d="M84.721 33.553c0 1.705-.451 3.686-1.77 5.435h3.72V11.64H74.773v11.176c6.43 1.898 9.947 5.822 9.947 10.737z" fill="#d1d9e0"/><path d="M64.158 21.838c2.686 0 5.183.597 7.094 1.083-4.051-.679-10.327.298-13.564 2.736v13.33h11.896v-15.17a15.584 15.584 0 015.716 2.202v12.97h2.583c-2.434 2.615-6.982 4.208-10.91 3.622v.547c11.317.85 16.108-4.255 16.108-10 0-6.766-6.672-10.727-13.496-11.53V11.64H57.688v10.098c-7.708 1.472-15.246 5.834-15.246 13.048 0 11.107 16.303 17.984 30.51 17.984 21.567 0 38.168-9.92 38.168-23.844 0-16.864-23.973-28.89-42.796-28.89-21.565 0-37.445 13.04-37.445 26.97 0 7.211 4.254 13.257 9.622 17.467l.404-.254c-4.248-3.36-8.08-8.595-8.08-15.791 1.12-15.246 20.863-23.83 38.432-23.83 12.423 0 34.754 2.728 34.754 22.496 0 10.317-11.579 23.734-35.907 23.734-12.454 0-22.127-6.354-22.127-15.476 0-7.896 6.498-13.514 16.18-13.514zM18.076 92.445v-1.557h4.17V77.43h-11.14v13.458h4.277v1.557H.02v-1.557h3.907V63.463H.02v-1.56h15.363v1.56h-4.277V75.62h11.14V63.463h-4.17v-1.56h15.206v1.56h-3.904v27.425h3.904v1.557zm21.1-30.542h6.964v3.622h-6.963zm-3.431 30.542V90.89h3.748V72.097h-3.748v-1.548H46.41v20.34h3.483v1.556zm15.652 0v-1.557h3.853V59.44h-3.853v-1.554H62.22v33h3.643v1.558zm25.314 0c-3.805 0-5.86-1.853-5.86-4.721V72.097h-3.747v-1.548h3.747v-8.697c2.11 0 4.329.051 6.495 0v8.697h5.383v1.548h-5.383v18.791h5.489v1.557zm32.253-6.577c-.789 2.053-4.064 7.129-12.036 7.129-8.868 0-13.41-5.778-13.41-11.653 0-8.138 7.6-11.503 13.253-11.503 5.014 0 12.3 2.86 12.879 11.15.105 1.611-.059 3.368-.686 4.877zm-7.548-11.812c-.897-1.902-2.54-2.767-4.7-2.767-5.438 0-5.542 5.336-5.542 9.956 0 6.222.58 7.336.997 8.087.692 1.259 2.17 2.41 4.6 2.41 5.437 0 5.437-5.58 5.385-10.699-.058-5.581-.421-6.284-.74-6.987zm26.841 18.39v-1.557h3.059V77.976c0-2.911 0-5.773-3.379-5.773-1.899 0-5.014 1.809-5.753 4.767-.261.903-.211 1.86-.211 4.276v9.642h3.483v1.557h-14.147v-1.557h3.747V72.097h-3.747v-1.548h10.663v3.308c1.16-1.406 2.117-2.411 4.383-3.263a11.171 11.171 0 014.166-.808c.426 0 1.693 0 3.17.409 4.44 1.25 4.646 4.467 4.646 6.775v13.918h3.645v1.557h-13.725zm-23.193-44.713h-1.125v-.4h2.79v.4h-1.132v3.877h-.533zm4.838 3.095h.022l1.385-3.496h.714v4.278h-.54v-3.215h-.026l-1.318 3.215h-.494l-1.358-3.215h-.022v3.215h-.541v-4.278h.756z" fill="#2f489a"/><path d="M64.158 21.838c2.686 0 5.183.597 7.094 1.083-4.051-.679-10.327.298-13.564 2.736v13.33h11.896v-15.17a15.584 15.584 0 015.716 2.202v12.97h2.583c-2.434 2.615-6.982 4.208-10.91 3.622v.547c11.317.85 16.108-4.255 16.108-10 0-6.766-6.672-10.727-13.496-11.53V11.64H57.688v10.098c-7.708 1.472-15.246 5.834-15.246 13.048 0 11.107 16.303 17.984 30.51 17.984 21.567 0 38.168-9.92 38.168-23.844 0-16.864-23.973-28.89-42.796-28.89-21.565 0-37.445 13.04-37.445 26.97 0 7.211 4.254 13.257 9.622 17.467l.404-.254c-4.248-3.36-8.08-8.595-8.08-15.791 1.12-15.246 20.863-23.83 38.432-23.83 12.423 0 34.754 2.728 34.754 22.496 0 10.317-11.579 23.734-35.907 23.734-12.454 0-22.127-6.354-22.127-15.476 0-7.896 6.498-13.514 16.18-13.514zM18.076 92.445v-1.557h4.17V77.43h-11.14v13.458h4.277v1.557H.02v-1.557h3.907V63.463H.02v-1.56h15.363v1.56h-4.277V75.62h11.14V63.463h-4.17v-1.56h15.206v1.56h-3.904v27.425h3.904v1.557zm21.1-30.542h6.964v3.622h-6.963zm-3.431 30.542V90.89h3.748V72.097h-3.748v-1.548H46.41v20.34h3.483v1.556zm15.652 0v-1.557h3.853V59.44h-3.853v-1.554H62.22v33h3.643v1.558zm25.314 0c-3.805 0-5.86-1.853-5.86-4.721V72.097h-3.747v-1.548h3.747v-8.697c2.11 0 4.329.051 6.495 0v8.697h5.383v1.548h-5.383v18.791h5.489v1.557zm32.253-6.577c-.789 2.053-4.064 7.129-12.036 7.129-8.868 0-13.41-5.778-13.41-11.653 0-8.138 7.6-11.503 13.253-11.503 5.014 0 12.3 2.86 12.879 11.15.105 1.611-.059 3.368-.686 4.877zm-7.548-11.812c-.897-1.902-2.54-2.767-4.7-2.767-5.438 0-5.542 5.336-5.542 9.956 0 6.222.58 7.336.997 8.087.692 1.259 2.17 2.41 4.6 2.41 5.437 0 5.437-5.58 5.385-10.699-.058-5.581-.421-6.284-.74-6.987zm26.841 18.39v-1.557h3.059V77.976c0-2.911 0-5.773-3.379-5.773-1.899 0-5.014 1.809-5.753 4.767-.261.903-.211 1.86-.211 4.276v9.642h3.483v1.557h-14.147v-1.557h3.747V72.097h-3.747v-1.548h10.663v3.308c1.16-1.406 2.117-2.411 4.383-3.263a11.171 11.171 0 014.166-.808c.426 0 1.693 0 3.17.409 4.44 1.25 4.646 4.467 4.646 6.775v13.918h3.645v1.557h-13.725zm-23.193-44.713h-1.125v-.4h2.79v.4h-1.132v3.877h-.533zm4.838 3.095h.022l1.385-3.496h.714v4.278h-.54v-3.215h-.026l-1.318 3.215h-.494l-1.358-3.215h-.022v3.215h-.541v-4.278h.756z" fill="#d1d9e0"/></g></svg>