<svg clip-rule="evenodd" fill-rule="evenodd" height="226" image-rendering="optimizeQuality" shape-rendering="geometricPrecision" text-rendering="geometricPrecision" width="600" xmlns="http://www.w3.org/2000/svg"><path d="M-.5 93.5v-16c2.265-9.178 7.098-16.844 14.5-23C17.331 41.17 25.498 32.336 38.5 28c9.497-1.7 18.83-4.032 28-7a113.427 113.427 0 0118-9c5.493-1.358 10.327-.191 14.5 3.5l30 34c6.451 11.04 5.951 21.707-1.5 32a246.422 246.422 0 0113.5 13c2 3.667 2 7.333 0 11a221.055 221.055 0 01-10.5 8.5 157.988 157.988 0 006.5 27.5c2.597 15.778-.57 30.278-9.5 43.5a135.043 135.043 0 0011 8.5c1.141 1.921 1.308 3.921.5 6a250.314 250.314 0 00-22.5 7.5l-3.5 3.5a69.749 69.749 0 01-6 12c-2.892 2.173-6.059 2.506-9.5 1-1.64-5.275-3.64-10.275-6-15a125.997 125.997 0 00-16.5 8A350.498 350.498 0 0040.5 188c-1-.667-2-.667-3 0-3.362 4.149-7.195 4.982-11.5 2.5.507-6.239 3.34-11.406 8.5-15.5l-3.5-3.5a201.458 201.458 0 00-12-24c-.667-3-.667-6 0-9 1.3-2.795 2.8-5.461 4.5-8a462.588 462.588 0 00-4-17c-9.743-3.743-16.41-10.409-20-20z" fill="#f8fafc" opacity=".819"/><path d="M86.5 14.5a18.436 18.436 0 016 .5A814.343 814.343 0 01125 50.5c4.072 5.396 5.406 11.396 4 18a79.195 79.195 0 01-5.5 13.5 132.875 132.875 0 0116 17.5c-2.437 4.753-6.104 8.42-11 11l-1 4.5a130.112 130.112 0 006.5 25.5c1.045 9.147.379 18.147-2 27a136.94 136.94 0 01-8.5 19 157.67 157.67 0 0112 9.5 561.132 561.132 0 00-21 8 479.347 479.347 0 01-12.5 17.5 3.943 3.943 0 01-2-1 94.715 94.715 0 00-5.5-14.5 12.494 12.494 0 00-7 0 131.152 131.152 0 00-12 6.5 258.723 258.723 0 00-33-27.5c-2.195-1.373-4.529-1.706-7-1a31.867 31.867 0 01-5 4.5c-1.083-.865-1.25-1.865-.5-3a70.56 70.56 0 009.5-10.5l-5.5-5.5a201.458 201.458 0 00-12-24c-.667-2-.667-4 0-6 3.157-2.982 4.657-6.648 4.5-11l-2.5-16C5.46 104.424-.873 90.757 5 71.5a110.903 110.903 0 0111-14c2.887-8.212 7.387-15.379 13.5-21.5a35.163 35.163 0 0110-5c9.24-.893 18.24-2.893 27-6 6.37-4.238 13.037-7.738 20-10.5z" fill="#3974af"/><path d="M34.5 88.5c2.256-1.062 3.423-2.728 3.5-5-1.309 2.391-2.309 2.391-3 0a10.521 10.521 0 00-2.5 3c-1.49 2.305-2.99 4.638-4.5 7-.654 1.196-1.154 1.196-1.5 0a94.774 94.774 0 0111-17.5l-1-1c9.17-8.954 20.17-14.288 33-16l28-1c-30.79-6.941-55.457 2.392-74 28-3.314.834-4.98-.499-5-4A156.844 156.844 0 0030 49.5c3.132-8.13 8.632-13.964 16.5-17.5a158.66 158.66 0 0029-5l13-9c1.333-.667 2.667-.667 4 0L120 47.5c2.904 3.142 4.738 6.809 5.5 11-2.177-.086-4.177-.753-6-2a25.647 25.647 0 00-6-6c-1.141 1.921-1.308 3.921-.5 6a122.976 122.976 0 014.5 9.5c-.009 1.404-.509 2.57-1.5 3.5-1.503-5.682-4.503-10.349-9-14a20.641 20.641 0 01-2-6A180.554 180.554 0 0189.5 33a8.434 8.434 0 00-4-.5 18.436 18.436 0 00.5 6 68.409 68.409 0 016 15 54.988 54.988 0 008.5 3 26.598 26.598 0 012 3.5c8.029 2.55 11.695 8.05 11 16.5-24.046-7.28-47.046-4.78-69 7.5A101.578 101.578 0 0032 95.5c.22-2.463 1.054-4.796 2.5-7z" fill="#f7f8fa"/><path d="M85.5 23.5h3c-.082 4.085-2.082 6.752-6 8a204.024 204.024 0 01-20 21.5 113.593 113.593 0 01-32 8.5c-1.211-.774-1.211-1.607 0-2.5 7.201-3.098 13.535-7.431 19-13 13.546-5.26 25.546-12.76 36-22.5z" fill="#3773af"/><path d="M388.5 53.5c14.55-1.247 27.05 3.087 37.5 13 8.495 16.034 6.828 31.034-5 45-8.906 10.869-20.072 18.369-33.5 22.5-3.57 1.781-6.237 4.448-8 8 2.788 12.588 9.121 22.921 19 31 1.135.749 2.135.583 3-.5-3.53-10.932-2.363-21.265 3.5-31 9.709-8.724 20.209-9.891 31.5-3.5 10.447 1.212 20.613.045 30.5-3.5a111.55 111.55 0 0017.5 4.5 18.593 18.593 0 006.5-3.5 74.297 74.297 0 005.5-20 246.133 246.133 0 01-18 1.5c-4.977-3.77-6.644-8.604-5-14.5a175.818 175.818 0 0126-5 446.82 446.82 0 008-18.5 95.767 95.767 0 0122-3.5 827.783 827.783 0 01-5.5 21 173.23 173.23 0 0129.5-2c.009 1.808-.491 3.475-1.5 5l-9.5 11.5a114.38 114.38 0 01-25 3.5 999.732 999.732 0 01-21 68c-4.724.816-8.89-.517-12.5-4a215.237 215.237 0 015.5-30c-1.545-.952-3.212-1.285-5-1 .572 9.975-1.595 19.308-6.5 28-4.249 4.752-9.583 6.752-16 6-12.298.703-18.465-5.131-18.5-17.5a43.297 43.297 0 013-14.5c-1.189-.929-2.522-1.262-4-1 2.806 25.693-8.527 37.193-34 34.5-9.182 8.131-18.515 8.131-28 0a248.274 248.274 0 01-20.5-26.5 118.154 118.154 0 001.5 29c5.349.156 7.349 2.656 6 7.5a77.487 77.487 0 01-23 1c-2.958-.229-5.458-1.396-7.5-3.5a986.508 986.508 0 012.5-80.5c1.424-6.936-.743-8.769-6.5-5.5l-4-2a150.164 150.164 0 011-33c18.681-8.71 38.181-14.043 58.5-16zm4 32c2.948-.277 5.781.056 8.5 1 .269 2.78-.898 4.946-3.5 6.5a146.702 146.702 0 01-35 18.5c-.581-6.157.419-11.99 3-17.5 8.871-3.627 17.871-6.46 27-8.5zm71 62c1.89-.203 3.39.463 4.5 2 1.932 4.694 1.932 9.361 0 14-2.747 2.534-5.413 2.534-8 0-3.521-6.288-2.354-11.621 3.5-16zm-42 1h5a31.337 31.337 0 01.5 12c-2.181 5.114-5.514 6.447-10 4-1.224-6.155.276-11.488 4.5-16z" fill="#fefffe" opacity=".953"/><path d="M66.5 60.5h9c-.643 3.487-2.643 5.987-6 7.5a8.905 8.905 0 004 3c-1.735.651-3.402.485-5-.5-1.024 1.353-2.357 2.02-4 2 .506-3.507-.16-6.674-2-9.5 1.566-.608 2.9-1.442 4-2.5z" fill="#e15454"/><path d="M68.5 62.5a2.428 2.428 0 012 .5c-.966 1.678-2.3 2.345-4 2 .88-.708 1.547-1.542 2-2.5z" fill="#f1aaaa"/><path d="M94.5 60.5c1.034 1.187 2.367 2.02 4 2.5-3.167.5-5 2.333-5.5 5.5-.304-1.94-1.137-3.607-2.5-5 1.684-.65 3.017-1.65 4-3z" fill="#e35d5c"/><path d="M77.5 63.5c4.755-.344 6.088 1.656 4 6-6.155 1.446-7.489-.554-4-6z" fill="#e35c5b"/><path d="M85.5 63.5c3.725.28 4.892 2.28 3.5 6-1.7.906-3.533 1.24-5.5 1-.315-2.71.352-5.044 2-7z" fill="#e25858"/><path d="M101.5 65.5c.14 1.624-.527 2.79-2 3.5.916.278 1.582.778 2 1.5-2.64 1.677-4.306 1.01-5-2 .614-3.342 2.28-4.342 5-3z" fill="#e46260"/><path d="M103.5 69.5c.438.065.772-.101 1-.5-.916-.278-1.582-.778-2-1.5.907-3.304 2.407-3.638 4.5-1 .246 2.425-.588 4.425-2.5 6-.886-.825-1.219-1.825-1-3z" fill="#e3605f"/><path d="M247.5 65.5a91.699 91.699 0 0115 1.5c1.863 1.418 2.363 3.251 1.5 5.5-6.868 3.059-10.201 8.392-10 16a1187.31 1187.31 0 00-1.5 74c7.042-2.66 11.875-7.66 14.5-15 .667-1.333.667-2.667 0-4-8.373-8.763-8.539-17.596-.5-26.5 2.57-2.459 5.57-3.459 9-3l8 9c5.611.951 10.944.117 16-2.5 6.311 1.621 8.811 5.621 7.5 12a57.698 57.698 0 00-8.5 20c2.756 8.653 7.922 10.32 15.5 5-1.909 11.549-8.743 16.716-20.5 15.5-9.601-4.617-12.935-12.117-10-22.5a4.457 4.457 0 00-1.5-2c-3.49 11.816-9.656 21.983-18.5 30.5a76.527 76.527 0 00-10 6.5l2.5 8a63.532 63.532 0 016.5 7 7.293 7.293 0 01-2 3c-8.054 3-15.887 2.667-23.5-1a29.639 29.639 0 01-4-13c-1.334-13.35-2.667-26.684-4-40a682.915 682.915 0 01-9 28c-4.933 7.568-10.933 8.568-18 3a2236.978 2236.978 0 01-13.5-35 210.329 210.329 0 00-6 25l1 4c3.841 2.032 4.841 5.032 3 9-8.945 1.537-17.445.204-25.5-4a15.505 15.505 0 01-2.5-7 6767.186 6767.186 0 0113-80.5c-1.892-3.558-4.725-6.058-8.5-7.5-.667-1.333-.667-2.667 0-4a89.384 89.384 0 0125.5-9 9.208 9.208 0 014.5 2 66.944 66.944 0 017 17 334.255 334.255 0 0010 39 2272.973 2272.973 0 0123.5-61c4.701-1.39 9.368-2.39 14-3z" fill="#fefffe" opacity=".954"/><path d="M78.5 65.5c1.965.448 2.298 1.448 1 3-.886-.825-1.219-1.825-1-3z" fill="#fceaea"/><path d="M86.5 65.5c1.276.886 1.276 1.886 0 3-1.062-.925-1.062-1.925 0-3z" fill="#fcf4f4"/><path d="M49.5 66.5c1.659 1.97 3.325 3.97 5 6 1.006-.438 1.006-1.104 0-2 2.213-3.397 3.88-3.397 5 0-.747.236-1.58.57-2.5 1-1.294 1.354-1.46 2.688-.5 4l-1.5 1a9.564 9.564 0 01-3-3 4.932 4.932 0 00-.5 3 6.845 6.845 0 01-4-1c-.96 4.186-2.46 3.853-4.5-1a8.434 8.434 0 01-.5-4c1.984-.117 3.65.55 5 2a54.314 54.314 0 002-6z" fill="#e25756"/><path d="M101.5 65.5c.838.342 1.172 1.008 1 2 .418.722 1.084 1.222 2 1.5-.228.399-.562.565-1 .5l-2 1c-.418-.722-1.084-1.222-2-1.5 1.473-.71 2.14-1.876 2-3.5z" fill="#f3b0af"/><path d="M68.5 76.5c2.357-.163 4.69.003 7 .5A228.519 228.519 0 0194 94.5c.667.667.667 1.333 0 2-16.47 3.008-30.97-.992-43.5-12 5.662-3.656 11.662-6.323 18-8z" fill="#f7f9fc"/><path d="M109.5 78.5a345.905 345.905 0 0118 15.5c-2.131-.398-4.131-1.398-6-3-4.28-4.11-8.28-8.276-12-12.5z" fill="#dbe6f0"/><path d="M34.5 88.5l-2-2a10.521 10.521 0 012.5-3c.691 2.391 1.691 2.391 3 0-.077 2.272-1.244 3.938-3.5 5z" fill="#92b2d3"/><path d="M84.5 77.5c.06-.543.393-.876 1-1a174.248 174.248 0 0120 18.5c-1 .667-2 .667-3 0a443.227 443.227 0 00-18-17.5z" fill="#ebf1f7"/><path d="M48.5 89.5a218.935 218.935 0 0118 8.5c2.971.794 5.971 1.461 9 2a425.799 425.799 0 0048-1.5v3c-10.632-2.205-17.299 1.962-20 12.5.13 1.059.63 1.892 1.5 2.5 3.327-7.584 9.161-10.917 17.5-10a493.454 493.454 0 007.5 30c4.621 19.114.454 35.948-12.5 50.5-10.684 5.773-21.517 5.94-32.5.5l-1.5 1.5c8.165 3.985 16.832 5.485 26 4.5-.93 7.457-3.263 14.457-7 21-.627-5.714-2.96-10.547-7-14.5a267.57 267.57 0 01-40-18 126.282 126.282 0 01-8.5-6.5 12.935 12.935 0 01-.5-5c-3.307.437-6.307-.23-9-2a160.27 160.27 0 00-11.5-21c-1.428-8.908 2.405-13.075 11.5-12.5 3.04 2.031 6.207 2.531 9.5 1.5a371.561 371.561 0 001.5-47z" fill="#fbfcfd"/><path d="M64.5 112.5a169.193 169.193 0 0120 5 22.215 22.215 0 01-6 2.5l-14 1a15.83 15.83 0 00-3.5 5.5c-4.745 4.217-5.745 3.884-3-1-.449-5.77 1.718-10.103 6.5-13z" fill="#4179b2"/><path d="M108.5 115.5c7.332-.026 10.499 3.641 9.5 11-4.423 4.359-7.256 3.359-8.5-3-1.946 1.544-2.446 3.544-1.5 6 4.278 1.219 7.778 3.552 10.5 7a72.496 72.496 0 00-5.5 10c-.667-1.333-.667-2.667 0-4 2.37-2.349 2.87-5.015 1.5-8-8.384-1.097-11.551-5.763-9.5-14a27.241 27.241 0 013.5-5z" fill="#487eb5"/><path d="M109.5 116.5c1.984-.117 3.65.55 5 2a23.411 23.411 0 00-7 3l-1-1a514.367 514.367 0 003-4z" fill="#e4ebf4"/><path d="M599.5 139.5v9a125.093 125.093 0 01-16.5 16c-1.026 3.093-.193 5.427 2.5 7 2.118-1.446 4.451-2.113 7-2-1.563 11.886-8.396 18.219-20.5 19-6.839.495-10.673-2.671-11.5-9.5 1.488-9.307 5.154-17.64 11-25-.608-.87-1.441-1.37-2.5-1.5a376.309 376.309 0 00-22.5 23.5 104.265 104.265 0 01-16 11c-9.604 3.408-16.77.574-21.5-8.5-3.032-11.148-2.366-22.148 2-33 5.692-15.932 16.858-22.098 33.5-18.5 7.303 5.456 9.47 12.622 6.5 21.5-5.538 9.196-13.704 14.529-24.5 16 .117 5.879 2.784 7.379 8 4.5 9.81-5.977 17.81-13.81 24-23.5-2.724-6.014-2.558-12.014.5-18 5.12-4.738 10.953-5.905 17.5-3.5 2.818 3.434 3.651 7.268 2.5 11.5a6.547 6.547 0 003 3c6.127-2.824 11.96-2.49 17.5 1zm-64 2c.965 1.221.798 2.554-.5 4-1.133 1.711-2.633 2.211-4.5 1.5a38.47 38.47 0 005-5.5z" fill="#fefffe" opacity=".931"/><path d="M71.5 129.5a47.21 47.21 0 0112 1.5c-1.1 1.023-2.433 1.523-4 1.5-5.535-2.127-10.035-.794-13.5 4 .804-2.99 2.637-5.323 5.5-7z" fill="#427ab3"/><path d="M31.5 139.5c9.194-1.296 12.694 2.704 10.5 12 2.984 2.903 3.15 5.903.5 9a20.948 20.948 0 00-3.5-8 105.847 105.847 0 010-9c-4.713-3.297-8.213-2.297-10.5 3l-1-1c.967-2.29 2.3-4.29 4-6z" fill="#487eb5"/><path d="M62.5 139.5c1.121 1.589.954 3.256-.5 5-.385-1.697-.218-3.363.5-5z" fill="#7da5cb"/><path d="M105.5 141.5a4.934 4.934 0 013 .5 11.532 11.532 0 00-4.5 3.5c-.3-1.566.2-2.899 1.5-4z" fill="#6191c0"/><path d="M120.5 146.5c2.721 1.196 3.887 3.196 3.5 6a3.943 3.943 0 00-2-1 952.105 952.105 0 00-5.5 3.5c-1.684 12.01-8.017 15.343-19 10a247.239 247.239 0 01-14-12.5c-5.309 2.737-5.309 1.57 0-3.5 1.561-.188 2.228.645 2 2.5 8.108 2.708 16.441 3.542 25 2.5a25.471 25.471 0 009-4c.837-1.011 1.17-2.178 1-3.5z" fill="#447bb4"/><path d="M93.5 157.5h17c.908 4.585-.925 6.918-5.5 7-3.409-.452-6.576-1.619-9.5-3.5-1.323-.816-1.99-1.983-2-3.5z" fill="#f0f4f9"/><path d="M321.5 160.5c6.985 1.97 9.152 6.304 6.5 13-7.503 6.014-12.336 4.181-14.5-5.5 1.231-4.065 3.898-6.565 8-7.5z" fill="#fefffe" opacity=".855"/><path d="M114.5 168.5c1.15 1.767.483 2.933-2 3.5-2.942 1.124-5.942 1.458-9 1l8-2c1.442-.377 2.442-1.21 3-2.5z" fill="#618fbf"/><path d="M42.5 177.5a445.265 445.265 0 0044 23 175.97 175.97 0 01-10.5 7 389.13 389.13 0 00-31.5-26c-1.205-1.077-1.872-2.41-2-4z" fill="#f6f9fb"/><path d="M117.5 190.5c3.472-.374 6.472.626 9 3 .886.825 1.219 1.825 1 3a95.51 95.51 0 00-15 4c.167-4.215 1.833-7.548 5-10z" fill="#f4f7fa"/></svg>