<svg fill="none" height="42" width="42" xmlns="http://www.w3.org/2000/svg"><path clip-rule="evenodd" d="M18.572 16.617h.079l.684 6.4h-1.479l-.202 1.808h1.876l.314 3.109h1.665l-1.576-13.845h-2.8l-1.575 13.845h1.749zm-5.92 7.104l-1.636-9.635h-2.67v13.845h1.691V17.897l1.801 10.034h2.506V14.086h-1.692zm12.066-8.34c.818-.058 1.37.04 1.37 1.323v3.928c-.058.642-.766.622-1.37.622v1.369c2.584.001 3.191-.327 3.171-2.582V16.4c.06-1.848-.798-2.315-3.073-2.315h-1.86V27.93h1.763zm6.617 1.236h.078l.685 6.4H30.62l-.202 1.808h1.876l.314 3.109h1.664l-1.575-13.845h-2.8L28.32 27.934h1.75z" fill="#1a3b73" fill-rule="evenodd"/><path clip-rule="evenodd" d="M18.572 16.617h.079l.684 6.4h-1.479l-.202 1.808h1.876l.314 3.109h1.665l-1.576-13.845h-2.8l-1.575 13.845h1.749zm-5.92 7.104l-1.636-9.635h-2.67v13.845h1.691V17.897l1.801 10.034h2.506V14.086h-1.692zm12.066-8.34c.818-.058 1.37.04 1.37 1.323v3.928c-.058.642-.766.622-1.37.622v1.369c2.584.001 3.191-.327 3.171-2.582V16.4c.06-1.848-.798-2.315-3.073-2.315h-1.86V27.93h1.763zm6.617 1.236h.078l.685 6.4H30.62l-.202 1.808h1.876l.314 3.109h1.664l-1.575-13.845h-2.8L28.32 27.934h1.75z" fill="#b3c1cc" fill-rule="evenodd"/><path d="M5.007 29.006L1.15 22.781c-.705-1.174-.744-2.427.078-3.758l3.72-6.03H6.2v16.013z" fill="#ecb73a"/><path d="M5.007 29.006L1.15 22.781c-.705-1.174-.744-2.427.078-3.758l3.72-6.03H6.2v16.013z" fill="#d1d9e0"/><path d="M36.934 29.084l3.915-6.303c.704-1.174.743-2.427-.079-3.758l-3.719-6.03h-1.253v16.091z" fill="#ecb73a"/><path d="M36.934 29.084l3.915-6.303c.704-1.174.743-2.427-.079-3.758l-3.719-6.03h-1.253v16.091z" fill="#d1d9e0"/><path d="M33.136 6.73l3.171 5.09H5.653l3.171-5.09c.313-.587.861-1.723 3.523-1.723h17.265c2.663 0 3.21 1.136 3.524 1.723z" fill="#ecb73a"/><path d="M33.136 6.73l3.171 5.09H5.653l3.171-5.09c.313-.587.861-1.723 3.523-1.723h17.265c2.663 0 3.21 1.136 3.524 1.723z" fill="#d1d9e0"/><path d="M33.136 35.27l3.171-5.09H5.653l3.171 5.09c.313.587.861 1.723 3.523 1.723h17.265c2.663 0 3.21-1.136 3.524-1.723z" fill="#ecb73a"/><path d="M33.136 35.27l3.171-5.09H5.653l3.171 5.09c.313.587.861 1.723 3.523 1.723h17.265c2.663 0 3.21-1.136 3.524-1.723z" fill="#d1d9e0"/></svg>