<svg clip-rule="evenodd" fill-rule="evenodd" height="899" image-rendering="optimizeQuality" shape-rendering="geometricPrecision" text-rendering="geometricPrecision" width="2115" xmlns="http://www.w3.org/2000/svg"><g fill="#fefffe"><path d="M790.5 19.5c17.67-.167 35.336 0 53 .5 17.527.549 34.194 4.549 50 12 12.271 7.355 19.438 18.188 21.5 32.5 1.26 9.916 1.26 19.916 0 30a370.433 370.433 0 01-21 82c-11.717 31.053-33.55 50.887-65.5 59.5-29.027 6.106-58.36 8.106-88 6-16.6-.544-32.6-3.877-48-10-19.804-10.82-28.804-27.653-27-50.5 2.363-40.12 12.529-78.12 30.5-114 12.234-20.224 29.734-33.724 52.5-40.5 13.931-3.71 27.931-6.21 42-7.5zm14 43c7.028-.441 12.861 1.892 17.5 7a12.861 12.861 0 011.5 6c-8.007 35.03-16.174 70.03-24.5 105-5.524 15.35-16.357 21.183-32.5 17.5-5.649-1.986-8.649-5.986-9-12A3074.095 3074.095 0 01785 73.5c5.068-6.445 11.568-10.112 19.5-11zm429-43c17.34-.167 34.67 0 52 .5 19.39.345 37.39 5.345 54 15 9.87 8.229 15.7 18.729 17.5 31.5 1.07 40.054-6.6 78.387-23 115-17.67 36.609-47 56.275-88 59a394.758 394.758 0 01-83.5-.5c-44.69-5.728-62.86-30.894-54.5-75.5 4.38-32.856 13.71-64.19 28-94 16.1-27.156 39.94-42.99 71.5-47.5a705.231 705.231 0 0126-3.5zm12 43a40.625 40.625 0 0115 3.5c2.87 2.906 4.2 6.406 4 10.5a3042.07 3042.07 0 01-24.5 106c-2.07 7.073-6.57 11.906-13.5 14.5-5.91 1.527-11.91 1.861-18 1-7.67-2.842-10.51-8.342-8.5-16.5 8.67-34.667 17.33-69.333 26-104 3.54-9.002 10.04-14.002 19.5-15z" opacity=".985"/><path d="M444.5 24.5c56.001-.167 112.001 0 168 .5 47.323 4.343 61.823 28.51 43.5 72.5-13.08 18.296-30.913 28.462-53.5 30.5 12.947 1.89 24.113 7.39 33.5 16.5 4.946 7.396 6.279 15.396 4 24a6027.47 6027.47 0 00-12.5 52.5c.332 5.508 2.998 9.341 8 11.5.886.825 1.219 1.825 1 3-32.335.167-64.668 0-97-.5-4.439-.13-7.272-2.296-8.5-6.5-.667-3-.667-6 0-9a1362.496 1362.496 0 0012-50c2.386-8.523-.114-15.023-7.5-19.5a120.132 120.132 0 00-25-1.5 4013.014 4013.014 0 01-20 86 2304.95 2304.95 0 01-96 1 16171.899 16171.899 0 0150-211zm86 41c7.008-.166 14.008 0 21 .5 10.049 1.706 14.216 7.54 12.5 17.5-2.752 14.085-11.252 21.919-25.5 23.5-5.657.499-11.324.666-17 .5a1179.19 1179.19 0 019-42zm403-41h207a3549.324 3549.324 0 01-11 51h-56c-12.67 53.333-25.33 106.667-38 160h-97a11126.774 11126.774 0 0139-159.5l-57-1a1867.921 1867.921 0 0013-50.5z" opacity=".984"/><path d="M1367.5 131.5c42.67-.333 85.34 0 128 1a6120.892 6120.892 0 01-12 48.5c-42.33.5-84.67.667-127 .5a678.863 678.863 0 0111-50z" opacity=".973"/></g><g fill="#fefefe"><path d="M338.5 234.5c7.674-.166 15.341 0 23 .5a174.575 174.575 0 01-5 14c-111.007 9.893-188.84 65.727-233.5 167.5-18.498 43.983-25.165 89.65-20 137 3.768 25.395 15.601 45.895 35.5 61.5 32.583 13.895 59.749 6.728 81.5-21.5a152.085 152.085 0 0020-42c3.823 23.484 14.323 43.318 31.5 59.5 32.769 19.182 61.602 14.348 86.5-14.5 10.35-13.697 18.35-28.697 24-45 4.114 23.068 14.614 42.568 31.5 58.5 22.119 15.077 45.119 16.41 69 4 13.63-9.632 24.463-21.799 32.5-36.5a427.853 427.853 0 0011.5-26c2.697 15.259 7.863 29.593 15.5 43 19.748 26.649 45.248 34.149 76.5 22.5 20.542-12.552 35.376-30.052 44.5-52.5a212.757 212.757 0 006.5-19 25.879 25.879 0 0110-1c3.823 100.788-31.177 184.954-105 252.5-90.207 73.712-191.873 95.712-305 66-98.171-32.5-166.671-96.667-205.5-192.5-26.968-76.549-27.302-153.216-1-230 35.626-89.626 98.46-151.793 188.5-186.5 28.322-10.167 57.322-16.667 87-19.5z" opacity=".989"/><path d="M739.5 270.5c24.557-.93 48.89.904 73 5.5 15.843 3.484 28.01 11.984 36.5 25.5a64.96 64.96 0 015 17c1.218 44.797-8.449 87.131-29 127-14.082 24.049-34.915 38.883-62.5 44.5-35.554 6.459-71.221 7.125-107 2-34.715-4.207-51.715-23.707-51-58.5 2.019-39.409 11.852-76.743 29.5-112 15.711-25.667 38.544-41.167 68.5-46.5a487.424 487.424 0 0137-4.5zm2 45c6.063-.662 11.73.504 17 3.5 2.417 2.479 3.417 5.479 3 9A1480.924 1480.924 0 01734 441.5c-8.203 8.509-18.036 11.009-29.5 7.5-6.189-2.864-8.356-7.697-6.5-14.5a12018.648 12018.648 0 0125-105c3.797-7.964 9.964-12.631 18.5-14zm248-45c24.89-.903 49.55.93 74 5.5 28.76 7.498 42.76 26.165 42 56-2.05 37.682-11.21 73.515-27.5 107.5-14.45 26.77-36.61 43.27-66.5 49.5-39.423 7.636-78.757 7.302-118-1-27.221-8.07-40.221-26.403-39-55 2.412-39.148 12.245-76.315 29.5-111.5 14.425-24.404 35.591-39.57 63.5-45.5 14.03-2.76 28.03-4.593 42-5.5zm1 45c5.862-.348 11.53.485 17 2.5 3.13 2.168 4.8 5.168 5 9-8.09 34.846-16.253 69.68-24.5 104.5-4.644 14.918-14.811 21.085-30.5 18.5-9.182-1.873-12.682-7.373-10.5-16.5a6167.77 6167.77 0 0127-106c3.7-6.541 9.2-10.541 16.5-12z" opacity=".985"/><path d="M383.5 275.5c53.668-.167 107.334 0 161 .5 16.099.107 31.099 4.107 45 12 11.633 10.229 16.133 23.062 13.5 38.5-4.55 29.218-21.383 46.718-50.5 52.5a116.123 116.123 0 01-13 2c12.956.982 24.456 5.482 34.5 13.5 6.078 7.283 8.078 15.616 6 25a1581.874 1581.874 0 00-12.5 54c.006 5.845 2.673 10.011 8 12.5-34.06.979-68.06.646-102-1a6.978 6.978 0 01-2.5-3.5c-.667-4-.667-8 0-12l11-44c4.625-17.741-2.209-25.741-20.5-24a68.98 68.98 0 00-11.5 1c-6.566 28-13.066 56-19.5 84-32.34.333-64.674 0-97-1a12004.631 12004.631 0 0050-210zm87 43c7.674-.166 15.341 0 23 .5 9.826 3.109 12.993 9.609 9.5 19.5-3.264 10.265-10.098 16.765-20.5 19.5a121.19 121.19 0 01-22 0 3426.762 3426.762 0 0010-39.5z" opacity=".984"/><path d="M1122.5 275.5h208a2793.73 2793.73 0 00-12 51h-56a27719.241 27719.241 0 01-38.5 159c-31.76.996-63.59 1.329-95.5 1 12.59-53.277 24.92-106.61 37-160-18.68.333-37.35 0-56-1 4.34-16.696 8.67-33.362 13-50z" opacity=".985"/><path d="M1342.5 275.5c65.67-.333 131.34 0 197 1a1358.395 1358.395 0 00-11 50h-100a1313.023 1313.023 0 01-7 31h91a529.757 529.757 0 01-11 44c-30.66 1-61.33 1.333-92 1-2.33 11.333-4.67 22.667-7 34h99c-3.67 16.667-7.33 33.333-11 50h-197c15.87-70.465 32.2-140.798 49-211z" opacity=".983"/><path d="M1563.5 275.5c57.35-.454 114.69.046 172 1.5 39.36 3 54.19 23.5 44.5 61.5-5.99 17.321-17.49 29.488-34.5 36.5a92.186 92.186 0 01-26 6c13.77.974 25.6 6.141 35.5 15.5 4.33 5.979 6 12.646 5 20a1687.02 1687.02 0 00-12.5 56c-.12 6.6 2.88 11.1 9 13.5-34.42.986-68.75.653-103-1-2.82-2.132-4.15-4.965-4-8.5 3.85-18.066 8.02-36.066 12.5-54 .67-4 .67-8 0-12-1.57-4.571-4.74-7.404-9.5-8.5-7.33-.5-14.66-.666-22-.5a2217.182 2217.182 0 01-21 84.5c-32 .5-64 .667-96 .5a49036.692 49036.692 0 0150-211zm86 43c7.67-.166 15.34 0 23 .5 9.46 2.129 13.3 7.963 11.5 17.5-3.3 11.637-10.8 18.804-22.5 21.5-6.99.5-13.99.666-21 .5l9-40z" opacity=".984"/><path d="M1819.5 436.5c14.37-1.238 24.21 4.762 29.5 18 2.35 22.652-7.82 33.152-30.5 31.5-14.87-4.219-21.37-14.053-19.5-29.5 2.78-10.951 9.62-17.618 20.5-20zm-1 4c15.57-1.388 24.57 5.612 27 21-3.8 18.393-14.47 24.56-32 18.5-10.32-8.445-12.49-18.612-6.5-30.5 3.16-4.009 6.99-7.009 11.5-9zm0 11c3.35-.165 6.68.002 10 .5 4.02 2.666 3.69 4.999-1 7a40.9 40.9 0 01-9 .5v-8z" opacity=".75"/></g><path d="M1814.5 446.5a63.15 63.15 0 0118 1.5c4.2 3.579 4.87 7.746 2 12.5-1.67 1.333-3.33 2.667-5 4 2.86 3.695 5.53 7.529 8 11.5-1.67.667-3.33.667-5 0a125.363 125.363 0 00-9-12 12.92 12.92 0 00-5-.5v13h-4v-30zm4 5v8a40.9 40.9 0 009-.5c4.69-2.001 5.02-4.334 1-7a50.476 50.476 0 00-10-.5z" fill="#fdfdfd" opacity=".735"/><path d="M1602.5 568.5c12.61-.927 24.61 1.24 36 6.5 8.09 5.69 11.76 13.524 11 23.5h-32c.86-10.825-3.64-13.825-13.5-9a168.951 168.951 0 00-1.5 25.5c-.14 8.597.36 17.097 1.5 25.5 9.63 4.877 14.13 1.877 13.5-9h-6v-19h38v45a81.862 81.862 0 01-18-1 54.387 54.387 0 01-2.5-10c-3.53 9.36-10.36 14.193-20.5 14.5-9.44 1.44-18.44.106-27-4-7.62-5.067-11.79-12.234-12.5-21.5a359.455 359.455 0 010-38c1.68-13.338 8.84-22.172 21.5-26.5 4.17-.705 8.17-1.539 12-2.5z" fill="#fefefe" opacity=".954"/><path d="M778.5 571.5c19.669-.167 39.336 0 59 .5 15.35 4.008 22.684 14.008 22 30-.007 9.693-3.341 18.027-10 25a15.39 15.39 0 01-6 3 184.5 184.5 0 01-31 1.5v26h-34v-86zm34 18c8.251-.582 12.584 3.251 13 11.5.136 9.036-4.197 12.869-13 11.5v-23z" fill="#fefefe" opacity=".961"/><path d="M891.5 571.5h34v65h29v21h-63v-86z" fill="#fefffe" opacity=".955"/><g fill="#fefefe"><path d="M988.5 571.5h34c-.17 22.336 0 44.669.5 67 .76 2.41 2.42 3.41 5 3 3.97.034 5.97-1.966 6-6 .5-21.331.67-42.664.5-64h33c.17 21.669 0 43.336-.5 65-1.78 10.077-7.28 17.243-16.5 21.5-15.8 4.922-31.47 4.589-47-1-9.326-5.806-14.159-14.306-14.5-25.5-.5-19.997-.667-39.997-.5-60z" opacity=".967"/><path d="M1105.5 571.5h48c2.06 15.339 4.22 30.672 6.5 46a660.936 660.936 0 008.5-46h46v86h-27c.17-21.003 0-42.003-.5-63a2058.46 2058.46 0 01-12.5 62 211.13 211.13 0 01-29 1c-3.17-18.713-6.67-37.38-10.5-56-.5 18.664-.67 37.33-.5 56h-29v-86z" opacity=".963"/><path d="M1254.5 571.5c19.34-.167 38.67 0 58 .5 18.4 4.461 23.9 15.628 16.5 33.5-3.64 4.234-8.14 7.068-13.5 8.5 12.44 2.108 18.78 9.441 19 22-.34 10.675-5.67 17.341-16 20a714.817 714.817 0 01-64 1.5v-86zm32 18c7.45-1.621 11.79 1.212 13 8.5-1.78 6.565-6.11 9.065-13 7.5v-16zm0 34c12.45-1.246 15.78 3.588 10 14.5-3.19 1.316-6.52 1.816-10 1.5v-16z" opacity=".973"/></g><path d="M1371.5 571.5h32v86h-32v-86z" fill="#fefffe" opacity=".976"/><g fill="#fefefe"><path d="M1442.5 571.5c14.67-.167 29.34 0 44 .5a2091.133 2091.133 0 0116.5 48.5c.5-16.33.67-32.663.5-49h28v86c-14 .167-28 0-42-.5a1873.356 1873.356 0 01-17.5-45.5c-.5 15.33-.67 30.663-.5 46h-29v-86z" opacity=".969"/><path d="M1797.5 574.5c9.29.322 17.96 2.822 26 7.5 6.58 6.568 7.74 14.068 3.5 22.5-4.67 5.002-10.17 8.835-16.5 11.5 2.93 2.382 5.76 4.882 8.5 7.5 2.17-2.167 4.33-4.333 6.5-6.5 8.67-.667 17.33-.667 26 0a517.21 517.21 0 00-21 17.5 728.685 728.685 0 0123 22.5c-13 .667-26 .667-39 0-1.83-1.833-3.67-3.667-5.5-5.5-6.53 6.909-14.69 10.242-24.5 10-9.94.076-18.77-2.924-26.5-9-7.13-11.21-5.63-21.043 4.5-29.5a47.326 47.326 0 0112-5c-10.85-7.541-14.35-17.708-10.5-30.5 2.6-3.89 6.1-6.723 10.5-8.5 7.61-2.535 15.27-4.035 23-4.5zm-2 14c7.38-.457 10.21 2.876 8.5 10a21.58 21.58 0 01-5 6c-5.32-3.298-7.32-7.964-6-14 .99-.566 1.83-1.233 2.5-2zm-10 42a141.05 141.05 0 0111.5 9c.51 1.496.01 2.663-1.5 3.5-4.63 1.909-8.8 1.076-12.5-2.5-1.14-3.921-.31-7.254 2.5-10z" opacity=".95"/><path d="M1417.5 713.5c7.34-.166 14.67 0 22 .5 16.86 1.029 25.86 9.862 27 26.5h-31c.29-5.046-2.05-8.046-7-9-6.3 3.468-6.64 7.635-1 12.5a802.64 802.64 0 0130 11c7.88 4.755 11.54 11.755 11 21 .04 14.58-6.96 23.913-21 28-14.01 2.735-28.01 2.402-42-1-12.23-4.07-17.89-12.57-17-25.5h34c-1.25 5.445.58 9.111 5.5 11 6.34-1.355 8.34-5.022 6-11-1.94-2.606-4.44-4.439-7.5-5.5a116.83 116.83 0 01-28-10c-5.96-4.684-8.96-10.85-9-18.5-.11-12.301 5.22-21.134 16-26.5 4.04-1.491 8.04-2.658 12-3.5z" opacity=".956"/></g><path d="M1928.5 713.5c8.01-.166 16.01 0 24 .5 19.46 2.07 28.79 12.904 28 32.5h-34c.17-4.014 0-8.014-.5-12-3.85-3.635-7.51-3.302-11 1-.67 16-.67 32 0 48 3.42 3.367 7.09 3.7 11 1 .19-4.918.69-9.751 1.5-14.5 10.99-.5 21.99-.667 33-.5 1.65 19.561-7.01 31.395-26 35.5-12.83 1.808-25.49.808-38-3-7.26-3.672-11.76-9.505-13.5-17.5-2.87-15.269-3.21-30.602-1-46 2.59-15.095 11.43-23.429 26.5-25z" fill="#fdfdfd" opacity=".955"/><path d="M778.5 715.5c17.67-.167 35.336 0 53 .5 12.017.05 20.184 5.55 24.5 16.5a199.932 199.932 0 011.5 27 220.186 220.186 0 01-1.5 28c-4.01 9.432-11.177 14.599-21.5 15.5-18.664.5-37.33.667-56 .5v-88zm34 20c4.016-.6 7.516.4 10.5 3 2 14 2 28 0 42-2.897 2.731-6.397 3.731-10.5 3v-48z" fill="#fefefe" opacity=".961"/><path d="M894.5 715.5c18.67-.167 37.336 0 56 .5 17.594 1.945 25.094 11.779 22.5 29.5-1.833 7.167-6.333 11.667-13.5 13.5 5.613 1.282 9.78 4.449 12.5 9.5a238.25 238.25 0 012 29 10.91 10.91 0 004.5 5 216.503 216.503 0 01-36 .5c-1.393-1.171-2.227-2.671-2.5-4.5l-1-27a6.978 6.978 0 00-2.5-3.5 32.462 32.462 0 00-8-.5v36h-34v-88zm34 19c11.247-1.26 14.58 3.24 10 13.5-3.188 1.316-6.522 1.816-10 1.5v-15z" fill="#fefefe" opacity=".954"/><path d="M1024.5 715.5h46l21 88h-34a85.7 85.7 0 00-2-14h-17c-.54 4.686-1.2 9.353-2 14h-35a4298.847 4298.847 0 0123-88zm22 22c2.74 11.408 4.74 23.075 6 35h-11a736.492 736.492 0 005-35z" fill="#fefefe" opacity=".958"/><path d="M1123.5 715.5h34v88h-34v-88z" fill="#fefffe" opacity=".948"/><path d="M1195.5 715.5c14.34-.167 28.67 0 43 .5a2091.133 2091.133 0 0116.5 48.5c.5-16.33.67-32.663.5-49h29v88c-14.35.333-28.68-.001-43-1a1536.488 1536.488 0 01-17.5-51c-.5 17.33-.67 34.663-.5 52h-28v-88z" fill="#fefefe" opacity=".96"/><path d="M1503.5 715.5h67v23h-35v11h31v19h-31v13h35v22h-67v-88z" fill="#fefffe" opacity=".96"/><path d="M1606.5 715.5c18.34-.167 36.67 0 55 .5 19.45 2.374 26.95 13.207 22.5 32.5-2.69 5.77-7.19 9.27-13.5 10.5 6 1.336 10.17 4.836 12.5 10.5.33 8.667.67 17.333 1 26 .52 3.008 2.02 5.341 4.5 7a204.662 204.662 0 01-35 .5 9.246 9.246 0 01-1.5-2.5 254.062 254.062 0 00-2-30c-.83-.833-1.67-1.667-2.5-2.5a40.9 40.9 0 00-9-.5v36h-32v-88zm32 19c10.73-2.111 14.56 1.889 11.5 12-.83.833-1.67 1.667-2.5 2.5a40.9 40.9 0 01-9 .5v-15z" fill="#fefefe" opacity=".964"/><path d="M1713.5 715.5h35c1.75 18.373 3.92 36.707 6.5 55 2.97-18.323 5.81-36.657 8.5-55 11.69-.332 23.35.001 35 1a2772.675 2772.675 0 00-21 87c-14.91.324-29.74-.009-44.5-1-6.95-28.92-13.45-57.92-19.5-87z" fill="#fefefe" opacity=".956"/><path d="M1828.5 715.5h34v88h-34v-88z" fill="#fefffe" opacity=".948"/><path d="M2016.5 715.5h67v23h-34v11h32v19h-32v13h34v22h-67v-88z" fill="#fefffe" opacity=".959"/></svg>