<svg fill="none" height="30" width="186" xmlns="http://www.w3.org/2000/svg"><path d="M164.805 23.106v5.675a38 38 0 008.787 1.045c3.442 0 6.252-.66 8.426-1.988 2.655-1.636 3.982-4.011 3.982-7.125 0-2.166-.68-3.933-2.043-5.299-1.156-1.15-3.452-2.504-6.882-4.062-2.441-1.108-3.915-1.825-4.423-2.152-.639-.419-.957-.96-.957-1.623 0-1.773 1.578-2.658 4.743-2.658 2.268 0 4.717.532 7.349 1.598v-5.46l-.7-.123c-3.029-.616-5.499-.923-7.405-.923-3.39 0-6.141.736-8.248 2.211-2.136 1.489-3.201 3.647-3.201 6.476 0 2.232.732 4.064 2.196 5.499 1.142 1.11 3.575 2.436 7.291 3.978 2.09.866 3.389 1.543 3.896 2.03.477.46.717 1.029.717 1.705 0 1.813-1.69 2.72-5.074 2.72-2.48 0-5.297-.508-8.454-1.524z" fill="#099"/><path d="M164.805 23.106v5.675a38 38 0 008.787 1.045c3.442 0 6.252-.66 8.426-1.988 2.655-1.636 3.982-4.011 3.982-7.125 0-2.166-.68-3.933-2.043-5.299-1.156-1.15-3.452-2.504-6.882-4.062-2.441-1.108-3.915-1.825-4.423-2.152-.639-.419-.957-.96-.957-1.623 0-1.773 1.578-2.658 4.743-2.658 2.268 0 4.717.532 7.349 1.598v-5.46l-.7-.123c-3.029-.616-5.499-.923-7.405-.923-3.39 0-6.141.736-8.248 2.211-2.136 1.489-3.201 3.647-3.201 6.476 0 2.232.732 4.064 2.196 5.499 1.142 1.11 3.575 2.436 7.291 3.978 2.09.866 3.389 1.543 3.896 2.03.477.46.717 1.029.717 1.705 0 1.813-1.69 2.72-5.074 2.72-2.48 0-5.297-.508-8.454-1.524z" fill="#d1d9e0"/><path d="M.574 28.78v-5.674c3.184 1.016 6.002 1.525 8.453 1.525 3.383 0 5.076-.908 5.076-2.721 0-.676-.247-1.244-.74-1.704-.505-.488-1.798-1.165-3.876-2.031-3.727-1.555-6.158-2.881-7.289-3.978C.733 12.749 0 10.924 0 8.717c0-2.84 1.068-5.006 3.201-6.494C5.311.748 8.06.01 11.45.01c1.868 0 4.57.348 8.106 1.047v5.459c-2.63-1.066-5.072-1.598-7.329-1.598-3.177 0-4.765.885-4.765 2.659 0 .663.32 1.203.96 1.623.534.339 2.002 1.055 4.402 2.152 3.457 1.557 5.758 2.91 6.904 4.062 1.36 1.365 2.042 3.132 2.042 5.299 0 3.113-1.335 5.488-4.003 7.124-2.161 1.327-4.964 1.988-8.406 1.988A38.04 38.04 0 01.575 28.78z" fill="#099"/><path d="M.574 28.78v-5.674c3.184 1.016 6.002 1.525 8.453 1.525 3.383 0 5.076-.908 5.076-2.721 0-.676-.247-1.244-.74-1.704-.505-.488-1.798-1.165-3.876-2.031-3.727-1.555-6.158-2.881-7.289-3.978C.733 12.749 0 10.924 0 8.717c0-2.84 1.068-5.006 3.201-6.494C5.311.748 8.06.01 11.45.01c1.868 0 4.57.348 8.106 1.047v5.459c-2.63-1.066-5.072-1.598-7.329-1.598-3.177 0-4.765.885-4.765 2.659 0 .663.32 1.203.96 1.623.534.339 2.002 1.055 4.402 2.152 3.457 1.557 5.758 2.91 6.904 4.062 1.36 1.365 2.042 3.132 2.042 5.299 0 3.113-1.335 5.488-4.003 7.124-2.161 1.327-4.964 1.988-8.406 1.988A38.04 38.04 0 01.575 28.78z" fill="#d1d9e0"/><path d="M26.238.51h7.912v28.736h-7.912z" fill="#099"/><path d="M26.238.51h7.912v28.736h-7.912z" fill="#d1d9e0"/><path d="M41.406.51v28.736h20.62v-5.49H49.032v-6.82h11.026v-4.74H49.032V5.708H61.7V.51z" fill="#099"/><path d="M41.406.51v28.736h20.62v-5.49H49.032v-6.82h11.026v-4.74H49.032V5.708H61.7V.51z" fill="#d1d9e0"/><path d="M67.192 29.245V.51h10.26l7.127 18.36L91.885.51h9.744v28.735h-7.502V8.9l-8.308 20.637h-4.904L72.767 8.9v20.346z" fill="#099"/><path d="M67.192 29.245V.51h10.26l7.127 18.36L91.885.51h9.744v28.735h-7.502V8.9l-8.308 20.637h-4.904L72.767 8.9v20.346z" fill="#d1d9e0"/><path d="M108.887.51v28.736h20.622v-5.49h-12.995v-6.82h11.026v-4.74h-11.026V5.708h12.666V.51z" fill="#099"/><path d="M108.887.51v28.736h20.622v-5.49h-12.995v-6.82h11.026v-4.74h-11.026V5.708h12.666V.51z" fill="#d1d9e0"/><path d="M134.715 29.245V.51h9.171l9.729 19.236V.51h5.573v28.735h-8.91l-9.987-19.494v19.495z" fill="#099"/><path d="M134.715 29.245V.51h9.171l9.729 19.236V.51h5.573v28.735h-8.91l-9.987-19.494v19.495z" fill="#d1d9e0"/></svg>