<svg fill="none" height="43" width="241" xmlns="http://www.w3.org/2000/svg"><path d="M36.704 0l-17.53 12.688v26.17h5.153v-22.57l12.377-8.417 12.357 8.417v22.57h5.178v-26.17zm36.548 0v7.548l-12.305 8.74v22.57h-5.181v-26.17zM.112 0v7.548l12.33 8.74v22.57h5.178v-26.17zm54.917 1.117a4.432 4.432 0 014.438 4.445A4.475 4.475 0 0157.1 9.535a4.496 4.496 0 00-2.071-.522c-.765 0-1.455.199-2.097.522a4.457 4.457 0 01-1.974-2.131 4.498 4.498 0 01-.25-2.904c.24-.97.798-1.829 1.58-2.442s1.749-.944 2.74-.94zm-36.697 0a4.385 4.385 0 00-3.122 1.301 4.443 4.443 0 00-1.292 3.144c0 1.738.962 3.228 2.367 3.973a4.415 4.415 0 012.047-.522c.765 0 1.48.199 2.099.522a4.475 4.475 0 002.367-3.973 4.436 4.436 0 00-4.466-4.445z" fill="#000"/><path d="M36.704 0l-17.53 12.688v26.17h5.153v-22.57l12.377-8.417 12.357 8.417v22.57h5.178v-26.17zm36.548 0v7.548l-12.305 8.74v22.57h-5.181v-26.17zM.112 0v7.548l12.33 8.74v22.57h5.178v-26.17zm54.917 1.117a4.432 4.432 0 014.438 4.445A4.475 4.475 0 0157.1 9.535a4.496 4.496 0 00-2.071-.522c-.765 0-1.455.199-2.097.522a4.457 4.457 0 01-1.974-2.131 4.498 4.498 0 01-.25-2.904c.24-.97.798-1.829 1.58-2.442s1.749-.944 2.74-.94zm-36.697 0a4.385 4.385 0 00-3.122 1.301 4.443 4.443 0 00-1.292 3.144c0 1.738.962 3.228 2.367 3.973a4.415 4.415 0 012.047-.522c.765 0 1.48.199 2.099.522a4.475 4.475 0 002.367-3.973 4.436 4.436 0 00-4.466-4.445z" fill="#d1d9e0"/><path d="M235.267 34.116l.148-5.785h-2.639l.345 10.751c0 .373 0 .99-.074 1.39-.126.571-.892.53-1.362.506a3.765 3.765 0 00-.216-.008l-.419 1.936c3.055.453 3.634-.785 4.608-2.868.095-.203.194-.414.299-.633l4.932-11.074h-2.515l-2.343 5.86a94.183 94.183 0 00-.986 2.83h-.025a29.01 29.01 0 00.247-2.905z" fill="#000"/><path d="M235.267 34.116l.148-5.785h-2.639l.345 10.751c0 .373 0 .99-.074 1.39-.126.571-.892.53-1.362.506a3.765 3.765 0 00-.216-.008l-.419 1.936c3.055.453 3.634-.785 4.608-2.868.095-.203.194-.414.299-.633l4.932-11.074h-2.515l-2.343 5.86a94.183 94.183 0 00-.986 2.83h-.025a29.01 29.01 0 00.247-2.905z" fill="#d1d9e0"/><path d="M226.118 37.568c-.417 2.036 1.677 1.887 3.181 1.688l.419-1.961c-.32.05-1.036.099-.962-.348l1.406-6.779h1.06l.37-1.837h-1.06l.666-2.98h-2.54l-.617 2.98h-1.011l-.37 1.837h1.036z" fill="#000"/><path d="M226.118 37.568c-.417 2.036 1.677 1.887 3.181 1.688l.419-1.961c-.32.05-1.036.099-.962-.348l1.406-6.779h1.06l.37-1.837h-1.06l.666-2.98h-2.54l-.617 2.98h-1.011l-.37 1.837h1.036z" fill="#d1d9e0"/><path d="M223.033 24.756l-.469 2.284h2.493l.494-2.284z" fill="#000"/><path d="M223.033 24.756l-.469 2.284h2.493l.494-2.284z" fill="#d1d9e0"/><path d="M222.296 28.331l-2.294 10.9h2.491l2.293-10.9z" fill="#000"/><path d="M222.296 28.331l-2.294 10.9h2.491l2.293-10.9z" fill="#d1d9e0"/><path d="M214.182 29.473h-.024l.222-1.142h-2.491l-2.293 10.9h2.49l1.505-7.027c.172-1.166.69-2.06 1.627-2.036.937.075.888.745.666 1.813l-1.504 7.25h2.466l1.8-8.392c.468-1.937-.493-2.781-1.924-2.781-.591 0-1.726.149-2.54 1.415z" fill="#000"/><path d="M214.182 29.473h-.024l.222-1.142h-2.491l-2.293 10.9h2.49l1.505-7.027c.172-1.166.69-2.06 1.627-2.036.937.075.888.745.666 1.813l-1.504 7.25h2.466l1.8-8.392c.468-1.937-.493-2.781-1.924-2.781-.591 0-1.726.149-2.54 1.415z" fill="#d1d9e0"/><path clip-rule="evenodd" d="M204.417 38.114c-.098.372-.197.77-.074 1.117h2.368c-.025-.496 0-1.018.098-1.54l1.356-6.43c.321-1.418.494-3.203-2.885-3.203-3.107 0-4.093 1.465-4.537 3.526h2.392c.2-.994.493-1.59 1.627-1.59.691 0 1.036.075 1.061.572.049.869-.444 1.365-1.603 1.812l-.342.13c-1.998.756-3.682 1.394-4.195 3.744-.444 2.235.197 3.277 2.219 3.277.838 0 1.701-.521 2.491-1.415zm.489-4.427l.302-.167-.247 1.167c-.051.182-.097.389-.145.606-.227 1.03-.507 2.3-1.729 2.3-.912 0-1.06-.547-.888-1.39.099-.473.272-.994.691-1.317.659-.45 1.373-.844 2.016-1.199z" fill="#000" fill-rule="evenodd"/><path clip-rule="evenodd" d="M204.417 38.114c-.098.372-.197.77-.074 1.117h2.368c-.025-.496 0-1.018.098-1.54l1.356-6.43c.321-1.418.494-3.203-2.885-3.203-3.107 0-4.093 1.465-4.537 3.526h2.392c.2-.994.493-1.59 1.627-1.59.691 0 1.036.075 1.061.572.049.869-.444 1.365-1.603 1.812l-.342.13c-1.998.756-3.682 1.394-4.195 3.744-.444 2.235.197 3.277 2.219 3.277.838 0 1.701-.521 2.491-1.415zm.489-4.427l.302-.167-.247 1.167c-.051.182-.097.389-.145.606-.227 1.03-.507 2.3-1.729 2.3-.912 0-1.06-.547-.888-1.39.099-.473.272-.994.691-1.317.659-.45 1.373-.844 2.016-1.199z" fill="#d1d9e0" fill-rule="evenodd"/><path d="M188.635 29.473h-.025l.222-1.142h-2.49l-2.318 10.9h2.515l1.504-7.176c.247-1.166.493-2.035 1.677-2.06 1.134 0 1.06.794.838 1.738l-1.578 7.498h2.491L193 32.055c.246-1.241.592-2.01 1.677-2.06 1.134-.075 1.011.894.789 1.887l-1.529 7.35h2.488l1.877-8.865c.246-1.142-.321-2.31-2.17-2.31-1.233 0-2.097.473-2.812 1.416.074-1.018-1.085-1.44-1.997-1.415-.814.05-1.874.199-2.688 1.415z" fill="#000"/><path d="M188.635 29.473h-.025l.222-1.142h-2.49l-2.318 10.9h2.515l1.504-7.176c.247-1.166.493-2.035 1.677-2.06 1.134 0 1.06.794.838 1.738l-1.578 7.498h2.491L193 32.055c.246-1.241.592-2.01 1.677-2.06 1.134-.075 1.011.894.789 1.887l-1.529 7.35h2.488l1.877-8.865c.246-1.142-.321-2.31-2.17-2.31-1.233 0-2.097.473-2.812 1.416.074-1.018-1.085-1.44-1.997-1.415-.814.05-1.874.199-2.688 1.415z" fill="#d1d9e0"/><path d="M178.818 37.617h.024l-.318 1.614h2.343l2.315-10.9h-2.49l-1.504 7.077-.031.13c-.194.846-.472 2.055-1.572 2.055-.321 0-.543-.1-.715-.348-.14-.398-.038-.907.057-1.38l.017-.085 1.578-7.449h-2.491l-1.751 8.368c-.394 1.788-.172 2.83 1.8 2.83 1.209-.025 2.072-.62 2.738-1.912z" fill="#000"/><path d="M178.818 37.617h.024l-.318 1.614h2.343l2.315-10.9h-2.49l-1.504 7.077-.031.13c-.194.846-.472 2.055-1.572 2.055-.321 0-.543-.1-.715-.348-.14-.398-.038-.907.057-1.38l.017-.085 1.578-7.449h-2.491l-1.751 8.368c-.394 1.788-.172 2.83 1.8 2.83 1.209-.025 2.072-.62 2.738-1.912z" fill="#d1d9e0"/><path d="M164.715 24.756l-3.082 14.475h2.687l1.381-6.63h3.798l-1.43 6.63h2.688l3.057-14.476h-2.687l-1.209 5.761h-3.751l1.211-5.76z" fill="#000"/><path d="M164.715 24.756l-3.082 14.475h2.687l1.381-6.63h3.798l-1.43 6.63h2.688l3.057-14.476h-2.687l-1.209 5.761h-3.751l1.211-5.76z" fill="#d1d9e0"/><path d="M153.47 30.293h-.024l.419-1.962h-2.392l-2.318 10.9h2.49l1.332-6.282c.395-1.589 1.504-1.961 2.861-1.812l.641-2.98-.102.006c-.375.02-.833.043-1.6.565-.394.323-.814.77-1.307 1.565z" fill="#000"/><path d="M153.47 30.293h-.024l.419-1.962h-2.392l-2.318 10.9h2.49l1.332-6.282c.395-1.589 1.504-1.961 2.861-1.812l.641-2.98-.102.006c-.375.02-.833.043-1.6.565-.394.323-.814.77-1.307 1.565z" fill="#d1d9e0"/><path clip-rule="evenodd" d="M145.061 28.058c-3.773 0-4.315 2.384-5.129 6.108-.817 3.774-.595 5.438 2.688 5.363 3.228.075 4.093-1.589 4.883-5.363l.002-.012c.763-3.718 1.251-6.096-2.444-6.096zm-2.02 9.535c-1.233 0-1.184-.571-.913-1.912l.74-3.625.003-.013c.221-1.014.446-2.048 1.772-2.048 1.216 0 1.026.975.834 1.96l-.02.1-.789 3.626c-.271 1.34-.493 1.912-1.627 1.912z" fill="#000" fill-rule="evenodd"/><path clip-rule="evenodd" d="M145.061 28.058c-3.773 0-4.315 2.384-5.129 6.108-.817 3.774-.595 5.438 2.688 5.363 3.228.075 4.093-1.589 4.883-5.363l.002-.012c.763-3.718 1.251-6.096-2.444-6.096zm-2.02 9.535c-1.233 0-1.184-.571-.913-1.912l.74-3.625.003-.013c.221-1.014.446-2.048 1.772-2.048 1.216 0 1.026.975.834 1.96l-.02.1-.789 3.626c-.271 1.34-.493 1.912-1.627 1.912z" fill="#d1d9e0" fill-rule="evenodd"/><path d="M134.655 28.331l-.395 1.837h.987l-1.948 9.063h2.515l1.899-9.063h1.085l.37-1.837h-1.085l.271-1.242c.074-.248.246-.446.641-.446.178.011.353.053.518.124l.419-2.011h-.937c-1.825 0-2.762.546-3.157 2.507l-.221 1.068z" fill="#000"/><path d="M134.655 28.331l-.395 1.837h.987l-1.948 9.063h2.515l1.899-9.063h1.085l.37-1.837h-1.085l.271-1.242c.074-.248.246-.446.641-.446.178.011.353.053.518.124l.419-2.011h-.937c-1.825 0-2.762.546-3.157 2.507l-.221 1.068z" fill="#d1d9e0"/><path d="M122.325 37.568c-.444 2.036 1.652 1.887 3.181 1.688l.419-1.961c-.32.05-1.011.099-.986-.348l1.43-6.779h1.061l.394-1.837h-1.06l.616-2.98h-2.49l-.642 2.98h-.986l-.395 1.837h1.012z" fill="#000"/><path d="M122.325 37.568c-.444 2.036 1.652 1.887 3.181 1.688l.419-1.961c-.32.05-1.011.099-.986-.348l1.43-6.779h1.061l.394-1.837h-1.06l.616-2.98h-2.49l-.642 2.98h-.986l-.395 1.837h1.012z" fill="#d1d9e0"/><path clip-rule="evenodd" d="M116.752 38.114a1.601 1.601 0 00-.074 1.117h2.293a5.493 5.493 0 01.124-1.54l1.356-6.43c.32-1.418.493-3.203-2.885-3.203-3.108 0-4.069 1.465-4.488 3.526h2.367c.197-.994.518-1.59 1.627-1.59.666 0 1.036.075 1.036.572.025.869-.468 1.365-1.578 1.812-.127.05-.252.097-.377.145-1.963.75-3.649 1.394-4.136 3.729-.493 2.235.197 3.277 2.195 3.277.863 0 1.726-.521 2.491-1.415zm.384-4.39l.357-.203-.247 1.166c-.033.142-.065.299-.098.464-.212 1.05-.494 2.442-1.751 2.442-.937 0-1.06-.547-.863-1.39.074-.473.271-.994.69-1.317.637-.434 1.307-.816 1.912-1.162z" fill="#000" fill-rule="evenodd"/><path clip-rule="evenodd" d="M116.752 38.114a1.601 1.601 0 00-.074 1.117h2.293a5.493 5.493 0 01.124-1.54l1.356-6.43c.32-1.418.493-3.203-2.885-3.203-3.108 0-4.069 1.465-4.488 3.526h2.367c.197-.994.518-1.59 1.627-1.59.666 0 1.036.075 1.036.572.025.869-.468 1.365-1.578 1.812-.127.05-.252.097-.377.145-1.963.75-3.649 1.394-4.136 3.729-.493 2.235.197 3.277 2.195 3.277.863 0 1.726-.521 2.491-1.415zm.384-4.39l.357-.203-.247 1.166c-.033.142-.065.299-.098.464-.212 1.05-.494 2.442-1.751 2.442-.937 0-1.06-.547-.863-1.39.074-.473.271-.994.69-1.317.637-.434 1.307-.816 1.912-1.162z" fill="#d1d9e0" fill-rule="evenodd"/><path d="M106.321 37.568c-.444 2.036 1.677 1.887 3.181 1.688l.419-1.961c-.32.05-1.036.099-.962-.348l1.406-6.779h1.06l.37-1.837h-1.06l.666-2.98h-2.54l-.617 2.98h-1.011l-.37 1.837h.987z" fill="#000"/><path d="M106.321 37.568c-.444 2.036 1.677 1.887 3.181 1.688l.419-1.961c-.32.05-1.036.099-.962-.348l1.406-6.779h1.06l.37-1.837h-1.06l.666-2.98h-2.54l-.617 2.98h-1.011l-.37 1.837h.987z" fill="#d1d9e0"/><path d="M103.238 24.756l-.468 2.284h2.49l.469-2.284z" fill="#000"/><path d="M103.238 24.756l-.468 2.284h2.49l.469-2.284z" fill="#d1d9e0"/><path d="M102.499 28.331l-2.294 10.9h2.488l2.296-10.9z" fill="#000"/><path d="M102.499 28.331l-2.294 10.9h2.488l2.296-10.9z" fill="#d1d9e0"/><g clip-rule="evenodd" fill-rule="evenodd"><path d="M95.397 24.756h-2.491l-3.06 14.475h2.391l.247-1.142h.025c.32 1.068.937 1.366 1.972 1.44 2.1 0 2.938-1.936 3.357-3.65l.838-3.948c.567-3.007-.172-3.823-1.775-3.873-1.06-.025-1.8.348-2.515 1.39h-.025c.048-.203.096-.38.14-.54.068-.252.126-.464.156-.676zM93.89 37.593c-.814 0-1.06-.67-.79-1.912l.67-3.278c.147-.869.517-2.408 1.7-2.408 1.034 0 .89.829.725 1.766-.02.113-.04.229-.058.344l-.743 3.625c-.296 1.043-.74 1.863-1.504 1.863z" fill="#000"/><path d="M95.397 24.756h-2.491l-3.06 14.475h2.391l.247-1.142h.025c.32 1.068.937 1.366 1.972 1.44 2.1 0 2.938-1.936 3.357-3.65l.838-3.948c.567-3.007-.172-3.823-1.775-3.873-1.06-.025-1.8.348-2.515 1.39h-.025c.048-.203.096-.38.14-.54.068-.252.126-.464.156-.676zM93.89 37.593c-.814 0-1.06-.67-.79-1.912l.67-3.278c.147-.869.517-2.408 1.7-2.408 1.034 0 .89.829.725 1.766-.02.113-.04.229-.058.344l-.743 3.625c-.296 1.043-.74 1.863-1.504 1.863z" fill="#d1d9e0"/><path d="M84.617 38.114c-.098.372-.197.77-.074 1.117h2.368c-.05-.496 0-1.018.098-1.54l1.357-6.43c.32-1.418.493-3.203-2.885-3.203-3.132 0-4.094 1.465-4.538 3.526h2.392c.197-.994.493-1.59 1.628-1.59.69 0 1.035.075 1.06.572.025.869-.444 1.365-1.627 1.812-.127.05-.252.097-.377.145-1.963.75-3.65 1.394-4.136 3.729-.469 2.235.197 3.277 2.195 3.277.86 0 1.726-.521 2.515-1.415zm.492-4.427l.302-.167-.247 1.167c-.05.175-.094.373-.141.581-.234 1.034-.526 2.325-1.758 2.325-.912 0-1.035-.547-.863-1.39.099-.473.271-.994.69-1.317.66-.45 1.374-.844 2.017-1.199z" fill="#000"/><path d="M84.617 38.114c-.098.372-.197.77-.074 1.117h2.368c-.05-.496 0-1.018.098-1.54l1.357-6.43c.32-1.418.493-3.203-2.885-3.203-3.132 0-4.094 1.465-4.538 3.526h2.392c.197-.994.493-1.59 1.628-1.59.69 0 1.035.075 1.06.572.025.869-.444 1.365-1.627 1.812-.127.05-.252.097-.377.145-1.963.75-3.65 1.394-4.136 3.729-.469 2.235.197 3.277 2.195 3.277.86 0 1.726-.521 2.515-1.415zm.492-4.427l.302-.167-.247 1.167c-.05.175-.094.373-.141.581-.234 1.034-.526 2.325-1.758 2.325-.912 0-1.035-.547-.863-1.39.099-.473.271-.994.69-1.317.66-.45 1.374-.844 2.017-1.199z" fill="#d1d9e0"/></g><path d="M70.54 24.756L67.505 39.23h2.664l1.405-6.63h3.749l-1.406 6.63h2.688l3.03-14.476h-2.66l-1.209 5.761h-3.775l1.235-5.76z" fill="#000"/><path d="M70.54 24.756L67.505 39.23h2.664l1.405-6.63h3.749l-1.406 6.63h2.688l3.03-14.476h-2.66l-1.209 5.761h-3.775l1.235-5.76z" fill="#d1d9e0"/><path d="M36.657 9.063l-10.752 7.151h21.257z" fill="#000"/><path d="M36.657 9.063l-10.752 7.151h21.257z" fill="#d1d9e0"/></svg>