<svg fill="none" height="36" width="236" xmlns="http://www.w3.org/2000/svg"><clipPath id="a"><path d="M0 0h236v36H0z"/></clipPath><g clip-path="url(#a)"><path d="M24.069 1.55h12.379v18.255c0 3.833-.404 6.751-1.212 8.75-.81 2.004-2.434 3.698-4.877 5.087-2.443 1.39-5.57 2.085-9.385 2.085-4.03 0-7.155-.46-9.372-1.378-2.215-.918-3.926-2.264-5.134-4.035-.971-1.42-1.623-3.114-1.953-5.077-.09-.519-.199-1.45-.255-2.22l11.892-.62c.019 1.492.173 2.598.46 3.321.29.722.777 1.307 1.467 1.752.468.293 1.137.436 2.005.436 1.373 0 2.38-.426 3.022-1.292.642-.863.963-2.316.963-4.363zm98.919 9.803c1.514-1.478 3.517-2.22 6.011-2.22 2.604 0 4.667.729 6.187 2.183 1.52 1.46 2.279 3.77 2.279 6.93 0 3.755-.728 6.356-2.182 7.806-1.46 1.455-3.518 2.176-6.175 2.176-2.586 0-4.629-.74-6.133-2.222-1.503-1.478-2.25-3.913-2.25-7.304 0-3.42.751-5.869 2.263-7.349zm-11.841 17.111c1.835 2.612 4.23 4.525 7.18 5.732C121.28 35.404 125.011 36 129.519 36c4.434 0 8.136-.694 11.103-2.091 2.971-1.397 5.244-3.353 6.817-5.865 1.572-2.515 2.356-5.733 2.356-9.658 0-5.407-1.799-9.613-5.395-12.61-3.598-3.004-8.725-4.502-15.374-4.502-6.486 0-11.546 1.525-15.182 4.583-3.633 3.053-5.451 7.32-5.451 12.803 0 3.926.919 7.195 2.754 9.805zM63.825 1.828H50.3l-14.99 33.62h12.605L56.9 10.544l4.4 12.088h-6.501l-2.667 7.263h11.735l1.998 5.554h12.929zm101.472 26.387h6.32c2.132 0 3.638-.316 4.512-.953.875-.635 1.313-1.489 1.313-2.56 0-.994-.432-1.793-1.299-2.397-.866-.606-2.386-.907-4.555-.907h-6.291zm0-13.212h5.391c1.932 0 3.276-.278 4.035-.835.756-.557 1.133-1.36 1.133-2.414 0-.976-.377-1.737-1.133-2.289-.759-.55-2.077-.824-3.957-.824h-5.469zM152.84 1.855h23.144c3.857 0 6.817.8 8.883 2.402 2.064 1.603 3.099 3.584 3.099 5.948 0 1.982-.736 3.682-2.211 5.101-.979.945-2.418 1.693-4.309 2.24 2.875.583 4.99 1.578 6.344 2.992 1.355 1.413 2.031 3.187 2.031 5.325 0 1.742-.484 3.31-1.444 4.7-.967 1.39-2.285 2.49-3.96 3.3-1.038.502-2.601.868-4.692 1.098-2.785.306-4.632.46-5.542.46H152.84zm37.761 22.464l11.736-.618c.253 1.609.773 2.83 1.555 3.673 1.27 1.362 3.086 2.04 5.449 2.04 1.761 0 3.118-.347 4.074-1.043.955-.697 1.432-1.505 1.432-2.423 0-.868-.456-1.65-1.366-2.338-.912-.69-3.019-1.339-6.322-1.953-5.406-1.02-9.264-2.381-11.568-4.078-2.323-1.692-3.485-3.854-3.485-6.481 0-1.726.596-3.356 1.781-4.887 1.191-1.54 2.978-2.745 5.363-3.621 2.387-.881 5.658-1.316 9.812-1.316 5.101 0 8.985.796 11.663 2.39 2.673 1.598 4.268 4.134 4.777 7.615l-11.619.573c-.313-1.516-.96-2.62-1.95-3.313-.994-.69-2.358-1.036-4.102-1.036-1.436 0-2.519.258-3.246.771-.727.512-1.088 1.134-1.088 1.868 0 .536.301 1.017.904 1.445.588.446 1.972.857 4.148 1.24 5.385.98 9.249 1.97 11.582 2.969 2.333 1.003 4.029 2.243 5.089 3.727a8.336 8.336 0 011.595 4.972c0 2.155-.708 4.145-2.126 5.961-1.416 1.818-3.394 3.198-5.936 4.14-2.541.936-5.745 1.404-9.609 1.404-6.79 0-11.493-1.097-14.105-3.296-2.613-2.2-4.094-4.993-4.438-8.385z" fill="#1c4f9c"/><path d="M24.069 1.55h12.379v18.255c0 3.833-.404 6.751-1.212 8.75-.81 2.004-2.434 3.698-4.877 5.087-2.443 1.39-5.57 2.085-9.385 2.085-4.03 0-7.155-.46-9.372-1.378-2.215-.918-3.926-2.264-5.134-4.035-.971-1.42-1.623-3.114-1.953-5.077-.09-.519-.199-1.45-.255-2.22l11.892-.62c.019 1.492.173 2.598.46 3.321.29.722.777 1.307 1.467 1.752.468.293 1.137.436 2.005.436 1.373 0 2.38-.426 3.022-1.292.642-.863.963-2.316.963-4.363zm98.919 9.803c1.514-1.478 3.517-2.22 6.011-2.22 2.604 0 4.667.729 6.187 2.183 1.52 1.46 2.279 3.77 2.279 6.93 0 3.755-.728 6.356-2.182 7.806-1.46 1.455-3.518 2.176-6.175 2.176-2.586 0-4.629-.74-6.133-2.222-1.503-1.478-2.25-3.913-2.25-7.304 0-3.42.751-5.869 2.263-7.349zm-11.841 17.111c1.835 2.612 4.23 4.525 7.18 5.732C121.28 35.404 125.011 36 129.519 36c4.434 0 8.136-.694 11.103-2.091 2.971-1.397 5.244-3.353 6.817-5.865 1.572-2.515 2.356-5.733 2.356-9.658 0-5.407-1.799-9.613-5.395-12.61-3.598-3.004-8.725-4.502-15.374-4.502-6.486 0-11.546 1.525-15.182 4.583-3.633 3.053-5.451 7.32-5.451 12.803 0 3.926.919 7.195 2.754 9.805zM63.825 1.828H50.3l-14.99 33.62h12.605L56.9 10.544l4.4 12.088h-6.501l-2.667 7.263h11.735l1.998 5.554h12.929zm101.472 26.387h6.32c2.132 0 3.638-.316 4.512-.953.875-.635 1.313-1.489 1.313-2.56 0-.994-.432-1.793-1.299-2.397-.866-.606-2.386-.907-4.555-.907h-6.291zm0-13.212h5.391c1.932 0 3.276-.278 4.035-.835.756-.557 1.133-1.36 1.133-2.414 0-.976-.377-1.737-1.133-2.289-.759-.55-2.077-.824-3.957-.824h-5.469zM152.84 1.855h23.144c3.857 0 6.817.8 8.883 2.402 2.064 1.603 3.099 3.584 3.099 5.948 0 1.982-.736 3.682-2.211 5.101-.979.945-2.418 1.693-4.309 2.24 2.875.583 4.99 1.578 6.344 2.992 1.355 1.413 2.031 3.187 2.031 5.325 0 1.742-.484 3.31-1.444 4.7-.967 1.39-2.285 2.49-3.96 3.3-1.038.502-2.601.868-4.692 1.098-2.785.306-4.632.46-5.542.46H152.84zm37.761 22.464l11.736-.618c.253 1.609.773 2.83 1.555 3.673 1.27 1.362 3.086 2.04 5.449 2.04 1.761 0 3.118-.347 4.074-1.043.955-.697 1.432-1.505 1.432-2.423 0-.868-.456-1.65-1.366-2.338-.912-.69-3.019-1.339-6.322-1.953-5.406-1.02-9.264-2.381-11.568-4.078-2.323-1.692-3.485-3.854-3.485-6.481 0-1.726.596-3.356 1.781-4.887 1.191-1.54 2.978-2.745 5.363-3.621 2.387-.881 5.658-1.316 9.812-1.316 5.101 0 8.985.796 11.663 2.39 2.673 1.598 4.268 4.134 4.777 7.615l-11.619.573c-.313-1.516-.96-2.62-1.95-3.313-.994-.69-2.358-1.036-4.102-1.036-1.436 0-2.519.258-3.246.771-.727.512-1.088 1.134-1.088 1.868 0 .536.301 1.017.904 1.445.588.446 1.972.857 4.148 1.24 5.385.98 9.249 1.97 11.582 2.969 2.333 1.003 4.029 2.243 5.089 3.727a8.336 8.336 0 011.595 4.972c0 2.155-.708 4.145-2.126 5.961-1.416 1.818-3.394 3.198-5.936 4.14-2.541.936-5.745 1.404-9.609 1.404-6.79 0-11.493-1.097-14.105-3.296-2.613-2.2-4.094-4.993-4.438-8.385z" fill="#d1d9e0"/><path d="M105.446 25.484c-1.651 1.338-4.479 2.724-8.332 2.743-2.585.016-4.629-.739-6.132-2.222-1.503-1.477-2.253-3.913-2.253-7.304 0-3.419.756-5.868 2.267-7.348 1.319-1.293 3.708-2.287 5.904-2.304 3.309-.032 5.217.383 8.467 2.778 1.094-2.18 2.84-5.37 4.175-7.267-.35-.256-.711-.496-1.083-.717-2.876-1.715-6.829-2.57-11.861-2.57-6.426 0-11.397 1.49-14.91 4.475-3.514 2.984-5.272 7.252-5.272 12.808 0 4.17.999 7.588 2.997 10.257 2 2.672 4.375 4.538 7.127 5.6C89.293 35.472 92.842 36 97.186 36c5.062 0 8.876-.882 12.42-3.204 0 0-2.344-3.44-4.146-7.303zM228.654 3.85h.484c.41 0 .784-.021.784-.505 0-.404-.342-.469-.653-.469h-.615zm-.464-1.359h1.152c.709 0 1.044.287 1.044.874 0 .553-.342.786-.785.833l.853 1.35h-.497l-.814-1.314h-.489v1.314h-.464zm.995 3.764c1.181 0 2.094-.965 2.094-2.246 0-1.252-.913-2.217-2.094-2.217-1.194 0-2.107.965-2.107 2.217 0 1.28.913 2.246 2.107 2.246zm0-4.846c1.393 0 2.559 1.125 2.559 2.6 0 1.503-1.166 2.627-2.558 2.627-1.398 0-2.571-1.124-2.571-2.627 0-1.475 1.172-2.6 2.57-2.6z" fill="#1c4f9c"/><path d="M105.446 25.484c-1.651 1.338-4.479 2.724-8.332 2.743-2.585.016-4.629-.739-6.132-2.222-1.503-1.477-2.253-3.913-2.253-7.304 0-3.419.756-5.868 2.267-7.348 1.319-1.293 3.708-2.287 5.904-2.304 3.309-.032 5.217.383 8.467 2.778 1.094-2.18 2.84-5.37 4.175-7.267-.35-.256-.711-.496-1.083-.717-2.876-1.715-6.829-2.57-11.861-2.57-6.426 0-11.397 1.49-14.91 4.475-3.514 2.984-5.272 7.252-5.272 12.808 0 4.17.999 7.588 2.997 10.257 2 2.672 4.375 4.538 7.127 5.6C89.293 35.472 92.842 36 97.186 36c5.062 0 8.876-.882 12.42-3.204 0 0-2.344-3.44-4.146-7.303zM228.654 3.85h.484c.41 0 .784-.021.784-.505 0-.404-.342-.469-.653-.469h-.615zm-.464-1.359h1.152c.709 0 1.044.287 1.044.874 0 .553-.342.786-.785.833l.853 1.35h-.497l-.814-1.314h-.489v1.314h-.464zm.995 3.764c1.181 0 2.094-.965 2.094-2.246 0-1.252-.913-2.217-2.094-2.217-1.194 0-2.107.965-2.107 2.217 0 1.28.913 2.246 2.107 2.246zm0-4.846c1.393 0 2.559 1.125 2.559 2.6 0 1.503-1.166 2.627-2.558 2.627-1.398 0-2.571-1.124-2.571-2.627 0-1.475 1.172-2.6 2.57-2.6z" fill="#d1d9e0"/></g></svg>