<svg fill="none" height="52" width="236" xmlns="http://www.w3.org/2000/svg"><g clip-rule="evenodd" fill-rule="evenodd"><path d="M235.97 39.488L118.001.058.031 38.046l1.196 4.329 15.076-4.569L24.44 51.99h187.364l6.699-13.463 16.272 5.048zm-49.992-7.83c.164-.401.248-.83.246-1.264a3.288 3.288 0 00-.96-2.33 3.271 3.271 0 00-4.639 0 3.305 3.305 0 000 4.66c.615.618 1.45.966 2.32.966a3.257 3.257 0 002.322-.962c.305-.306.547-.67.711-1.07zm-5.592-.213a2.792 2.792 0 01.608-3.023 2.755 2.755 0 011.951-.804 2.754 2.754 0 012.745 2.759 2.784 2.784 0 01-.794 1.97 2.754 2.754 0 01-1.951.825 2.753 2.753 0 01-1.961-.82 2.78 2.78 0 01-.598-.907zm3.618.799h.577l-1.094-1.669c.654-.018 1.144-.321 1.144-1.048 0-.795-.646-.977-1.309-.977h-1.599v3.694h.517v-1.618h.713zm-.802-2.057h-.961v-1.194h.98c.388 0 .894.043.894.527 0 .363-.17.667-.913.667zm-111.71 9.896c0-4.05-1.29-4.71-6.495-5.086l-1.944-.145h-.012c-1.236-.094-1.912-.146-1.912-1.554 0-.99.21-1.509 2.744-1.509 1.875 0 2.626 0 2.626 1.816h4.503v-.73c0-4.876-3.284-4.948-7.129-4.948-4.595 0-7.433.33-7.433 5.396 0 4.87 2.344 5.034 6.384 5.314.16.01.322.022.486.034l1.031.071c.057.004.113.008.167.01 2.051.13 2.296.146 2.296 1.64 0 1.484-.728 1.625-2.932 1.625-2.299 0-2.955-.19-2.955-2.028h-4.503c0 5.798 2.978 5.89 7.456 5.89 7.625 0 7.623-2.79 7.622-5.667v-.129zm15.237-4.923h-7.502v-3.227h7.996V28.07H74.536v17.67h12.85v-3.864h-8.159v-3.441h7.502zm13.297-7.09h-9.05v17.672h4.688v-4.69h3.634c1.407 0 1.97.895 1.923 2.216v2.474h4.691v-3.56c0-2.002-1.244-3.06-3.166-3.132v-.19c3.329-.777 3.329-2.497 3.329-5.443 0-4.404-1.993-5.277-6.049-5.347zm1.219 6.321c.002 1.857.003 2.561-1.945 2.561h-3.636v-4.781H99.3c1.546 0 1.945.445 1.945 2.026zm23.543-6.32h-4.854l-3.869 13.615h-.141l-3.799-13.616h-4.76l4.972 17.67h7.314zm1.688 0v17.67h4.688v-4.523h4.151c4.901 0 6.005-1.696 6.005-6.668 0-4.618-1.642-6.48-6.005-6.48zm10.011 6.48c0 2.283-.257 2.496-2.108 2.565h-3.215V32.17h3.215c1.827 0 2.108.564 2.108 2.38zm16.39-6.48h-9.048v17.67h4.688v-4.69h3.634c1.408 0 1.969.896 1.925 2.217v2.474h4.688v-3.56c0-2.002-1.242-3.06-3.164-3.132v-.19c3.329-.777 3.329-2.497 3.329-5.443 0-4.404-1.994-5.277-6.052-5.347zm1.219 6.324c.002 1.853.003 2.557-1.945 2.557h-3.634v-4.781h3.634c1.546 0 1.945.445 1.945 2.026zm7.272.012v4.995c0 5.443 3.378 6.479 8.137 6.479s8.137-1.036 8.137-6.479v-4.995c0-5.441-3.378-6.478-8.137-6.478s-8.137 1.036-8.137 6.478zm11.442.495v3.98c0 2.64-.867 2.898-3.306 2.898-2.44 0-3.236-.258-3.307-2.897v-3.98c.071-2.618.867-2.875 3.307-2.875 2.439 0 3.306.259 3.306 2.874z" fill="#e09142"/><path d="M235.97 39.488L118.001.058.031 38.046l1.196 4.329 15.076-4.569L24.44 51.99h187.364l6.699-13.463 16.272 5.048zm-49.992-7.83c.164-.401.248-.83.246-1.264a3.288 3.288 0 00-.96-2.33 3.271 3.271 0 00-4.639 0 3.305 3.305 0 000 4.66c.615.618 1.45.966 2.32.966a3.257 3.257 0 002.322-.962c.305-.306.547-.67.711-1.07zm-5.592-.213a2.792 2.792 0 01.608-3.023 2.755 2.755 0 011.951-.804 2.754 2.754 0 012.745 2.759 2.784 2.784 0 01-.794 1.97 2.754 2.754 0 01-1.951.825 2.753 2.753 0 01-1.961-.82 2.78 2.78 0 01-.598-.907zm3.618.799h.577l-1.094-1.669c.654-.018 1.144-.321 1.144-1.048 0-.795-.646-.977-1.309-.977h-1.599v3.694h.517v-1.618h.713zm-.802-2.057h-.961v-1.194h.98c.388 0 .894.043.894.527 0 .363-.17.667-.913.667zm-111.71 9.896c0-4.05-1.29-4.71-6.495-5.086l-1.944-.145h-.012c-1.236-.094-1.912-.146-1.912-1.554 0-.99.21-1.509 2.744-1.509 1.875 0 2.626 0 2.626 1.816h4.503v-.73c0-4.876-3.284-4.948-7.129-4.948-4.595 0-7.433.33-7.433 5.396 0 4.87 2.344 5.034 6.384 5.314.16.01.322.022.486.034l1.031.071c.057.004.113.008.167.01 2.051.13 2.296.146 2.296 1.64 0 1.484-.728 1.625-2.932 1.625-2.299 0-2.955-.19-2.955-2.028h-4.503c0 5.798 2.978 5.89 7.456 5.89 7.625 0 7.623-2.79 7.622-5.667v-.129zm15.237-4.923h-7.502v-3.227h7.996V28.07H74.536v17.67h12.85v-3.864h-8.159v-3.441h7.502zm13.297-7.09h-9.05v17.672h4.688v-4.69h3.634c1.407 0 1.97.895 1.923 2.216v2.474h4.691v-3.56c0-2.002-1.244-3.06-3.166-3.132v-.19c3.329-.777 3.329-2.497 3.329-5.443 0-4.404-1.993-5.277-6.049-5.347zm1.219 6.321c.002 1.857.003 2.561-1.945 2.561h-3.636v-4.781H99.3c1.546 0 1.945.445 1.945 2.026zm23.543-6.32h-4.854l-3.869 13.615h-.141l-3.799-13.616h-4.76l4.972 17.67h7.314zm1.688 0v17.67h4.688v-4.523h4.151c4.901 0 6.005-1.696 6.005-6.668 0-4.618-1.642-6.48-6.005-6.48zm10.011 6.48c0 2.283-.257 2.496-2.108 2.565h-3.215V32.17h3.215c1.827 0 2.108.564 2.108 2.38zm16.39-6.48h-9.048v17.67h4.688v-4.69h3.634c1.408 0 1.969.896 1.925 2.217v2.474h4.688v-3.56c0-2.002-1.242-3.06-3.164-3.132v-.19c3.329-.777 3.329-2.497 3.329-5.443 0-4.404-1.994-5.277-6.052-5.347zm1.219 6.324c.002 1.853.003 2.557-1.945 2.557h-3.634v-4.781h3.634c1.546 0 1.945.445 1.945 2.026zm7.272.012v4.995c0 5.443 3.378 6.479 8.137 6.479s8.137-1.036 8.137-6.479v-4.995c0-5.441-3.378-6.478-8.137-6.478s-8.137 1.036-8.137 6.478zm11.442.495v3.98c0 2.64-.867 2.898-3.306 2.898-2.44 0-3.236-.258-3.307-2.897v-3.98c.071-2.618.867-2.875 3.307-2.875 2.439 0 3.306.259 3.306 2.874z" fill="#d1d9e0"/></g></svg>