<svg viewBox="0 0 1448 1448" xmlns="http://www.w3.org/2000/svg"><path d="M620.01 690.75l-47.48 147.13q-.2.62-.85.62h-63.63q-.67 0-.46-.63l74.71-227.86q.17-.51.7-.51h95.49q.48 0 .4.47l-19.21 120.76q-.19 1.22.42.15l69.67-121.93q.26-.45.78-.45h87.99a.39.39 0 01.37.51l-76.62 229.96a.77.77 0 01-.74.52l-64.54-1a.55.54 10.2 01-.51-.73l49.05-134.41a.22.22 0 00-.39-.19l-80.19 134.9q-.26.44-.77.44h-42.28q-.85 0-.74-.84l19.19-146.84a.19.18-33.1 00-.36-.07zM829 838.51l-67.73.99a.45.45 0 01-.43-.6l79.5-230.1a.45.45 0 01.42-.3h67.69a.45.45 0 01.42.6l-79.45 229.11a.45.45 0 01-.42.3zm-563.34-47.26h55.65a.35.35 0 01.33.47l-17.4 47.55a.35.35 0 01-.32.23h-124.5a.35.35 0 01-.33-.47l81.36-229.3a.35.35 0 01.33-.23h123.59a.35.35 0 01.33.46l-15.46 44.56a.35.35 0 01-.33.24l-56.1-.01a.35.35 0 00-.33.24l-14.63 42.05a.35.35 0 00.33.46h56.51a.35.35 0 01.33.47l-17.34 47.55a.35.35 0 01-.32.23h-57.05a.35.35 0 00-.33.24l-14.65 44.8a.35.35 0 00.33.46zm971.21-26.67l-40.77 73.38q-.3.54-.91.54h-76.69a.31.3-71.6 01-.24-.49l86.46-117.75q.33-.44.3-.99l-4.57-109.23q-.02-.54.52-.54h71.27q.51 0 .46.51-3.01 31.28-6.17 62.49-.09.97 0 1.34.21.83.68.12l42.33-64.04q.28-.42.78-.42l73.19-.01a.25.24-70.6 01.19.4l-88.29 110.37q-.35.44-.31 1l9.18 117.7q.05.54-.49.54h-69.38q-.57 0-.54-.57l3.6-74.18q.07-1.38-.6-.17zM124.66 655.75H86.61a.33.33 0 01-.31-.44l15.52-45.59a.33.33 0 01.32-.22h144.94a.33.33 0 01.32.43l-15.53 46.59a.33.33 0 01-.32.23H194a.33.33 0 00-.32.22l-61.04 181.31a.33.33 0 01-.32.22H64.36a.33.33 0 01-.31-.43l60.92-181.89a.33.33 0 00-.31-.43zm352.8 70.26q.46.75 1.35.78c16.42.57 36.24 8.11 36.08 27.98q-.04 4.57-2.8 12.52-7.46 21.48-20.1 55.68-2.97 8.02 1.44 15.91.34.6-.35.6-34.15.05-68.12.01c-6.03 0-4.06-12.64-3.01-15.88q10.27-31.54 21.57-62.74c4.16-11.48-5.43-11.52-13.76-11.3-3.19.09-4.72.46-5.85 3.75q-14.67 42.93-29.61 85.76-.15.42-.59.42h-70.48a.37.36 9.1 01-.35-.48l80.42-229.2q.11-.32.45-.32h93.63c22.51 0 50.44 2.27 54.02 31.07 1.7 13.68-5.61 31.65-10.34 44.94q-3.45 9.69-6.94 14.83c-8.12 11.92-19.81 18.76-33.59 22.63-7.5 2.11-15.05 2.21-22.78 2.5a.35.35 0 00-.29.54zm-8.37-38.3q4.24-10.94 7.6-22.16c1.35-4.53 1.31-9.04-2.56-11.82-3.27-2.35-9.21-1.83-13.34-1.7q-.75.02-1 .73l-17.15 48.81q-.14.4.29.45c7.12.93 19.08.39 23.15-6.6q.05-.08 3.01-7.71zm486.65 18.24l-44.52 132.72a1.21 1.2-80.3 01-1.15.82l-62.44-.98q-.68-.01-.45-.64l81.17-227.86q.18-.51.72-.51h75.01q.57 0 .53.57l-6.37 109.88q-.11 1.84.5.1l38.2-110.13q.14-.42.58-.42h62.3a.29.29 0 01.27.38l-80.21 228.06q-.2.56-.79.56h-70.65a.34.34 0 01-.34-.36l8.19-132.09q.13-2.13-.55-.1zm164.14-96.45h67.98a.32.32 0 01.3.42l-79.53 229.36a.32.32 0 01-.3.22h-67.97a.32.32 0 01-.3-.42l79.52-229.36a.32.32 0 01.3-.22zm201.6 223.11l-2.76 2.76q-.52.52-.89-.11l-1.2-2q-.3-.48.14-.85l2.03-1.71q.38-.33.23-.81-1.59-4.81-.2-9.69.17-.59-.22-1.06l-1.88-2.29q-.42-.51.05-.98l1.02-1.02q.53-.53 1.11-.05l2.27 1.92q.47.4 1.06.21 4.8-1.49 9.58.11.45.15.76-.2l1.68-1.9q.41-.47.92-.1l1.21.88q.55.41.14.97l-2.09 2.78q-.38.51-.03 1.04 2.78 4.2.06 8.49-.29.46-.26 1 .08 1.25 1.37 1.6.53.15.67.69.45 1.74-1.04 3.03-.44.38-.77-.09l-1.88-2.64q-.36-.51-.96-.33c-3.85 1.17-5.07 2.64-9.22.23q-.49-.28-.9.12zm10.52-7.91a5.45 5.45 0 00-5.45-5.45 5.45 5.45 0 00-5.45 5.45 5.45 5.45 0 005.45 5.45 5.45 5.45 0 005.45-5.45z" fill="#fff"/></svg>