<svg fill="none" height="136" width="136" xmlns="http://www.w3.org/2000/svg"><clipPath id="a"><path d="M0 0h136v136H0z"/></clipPath><g clip-path="url(#a)" clip-rule="evenodd" fill-rule="evenodd"><path d="M68.26.26C30.848.26.52 30.59.52 68c0 37.411 30.328 67.74 67.74 67.74 37.408 0 67.74-30.329 67.74-67.74C136 30.591 105.668.26 68.26.26zm0 9.491c32.171 0 58.248 26.077 58.249 58.249 0 32.175-26.078 58.249-58.25 58.249-32.175 0-58.248-26.074-58.248-58.249 0-32.172 26.074-58.25 58.249-58.25z" fill="#231f20"/><path d="M68.26.26C30.848.26.52 30.59.52 68c0 37.411 30.328 67.74 67.74 67.74 37.408 0 67.74-30.329 67.74-67.74C136 30.591 105.668.26 68.26.26zm0 9.491c32.171 0 58.248 26.077 58.249 58.249 0 32.175-26.078 58.249-58.25 58.249-32.175 0-58.248-26.074-58.248-58.249 0-32.172 26.074-58.25 58.249-58.25z" fill="#d1d9e0"/><path d="M22.99 39.02h10.06v37.962c0 1.915 2.157 3.114 3.593 3.054 1.56-.067 3.834-1.139 3.834-3.114V39.02h10.056v39.158c0 7.783-6.826 11.855-13.77 11.855-6.588 0-13.773-4.072-13.773-11.855zm61.251 50.176c-.066 9.283-7.841 13.174-15.267 13.231-7.483.06-14.969-3.95-14.969-12.934V82.97h9.82v6.826c.48 2.692 2.876 3.83 5.029 3.83 2.156 0 4.971-.717 5.03-3.89.06-2.334.24-4.61-4.37-7.125-1.97-.99-3.967-1.93-5.987-2.816-.957-.418-10-2.812-10-15.507 0-1.975.78-14.487 15.447-14.487 11.018 0 14.671 5.986 14.671 14.487v5.029h-9.88v-5.388c0-1.855-1.259-5.209-4.79-5.209-3.355 0-5.27 2.277-5.27 5.089 0 4.79 1.677 4.908 3.475 6.348 2.574 1.496 6.703 3.351 6.703 3.351C77 75.184 84.302 75.901 84.241 89.196zm32.094-13.413c-.066 9.284-7.844 13.175-15.267 13.232-7.486.06-14.969-3.951-14.969-12.933v-6.526h9.82v6.827c.479 2.692 2.872 3.83 5.029 3.83 2.156 0 4.971-.716 5.028-3.89.06-2.334.241-4.61-4.369-7.128-.361-.177-2.896-1.46-5.99-2.812-.957-.419-9.997-2.812-9.997-15.505 0-1.979.777-14.49 15.448-14.49 11.015 0 14.667 5.986 14.667 14.49v5.029h-9.879v-5.39c0-1.855-1.256-5.207-4.788-5.207-3.354-.003-5.27 2.273-5.27 5.086 0 4.791 1.678 4.912 3.472 6.348 2.575 1.497 6.706 3.351 6.706 3.351 3.114 1.678 10.419 2.397 10.359 15.689z" fill="#231f20"/><path d="M22.99 39.02h10.06v37.962c0 1.915 2.157 3.114 3.593 3.054 1.56-.067 3.834-1.139 3.834-3.114V39.02h10.056v39.158c0 7.783-6.826 11.855-13.77 11.855-6.588 0-13.773-4.072-13.773-11.855zm61.251 50.176c-.066 9.283-7.841 13.174-15.267 13.231-7.483.06-14.969-3.95-14.969-12.934V82.97h9.82v6.826c.48 2.692 2.876 3.83 5.029 3.83 2.156 0 4.971-.717 5.03-3.89.06-2.334.24-4.61-4.37-7.125-1.97-.99-3.967-1.93-5.987-2.816-.957-.418-10-2.812-10-15.507 0-1.975.78-14.487 15.447-14.487 11.018 0 14.671 5.986 14.671 14.487v5.029h-9.88v-5.388c0-1.855-1.259-5.209-4.79-5.209-3.355 0-5.27 2.277-5.27 5.089 0 4.79 1.677 4.908 3.475 6.348 2.574 1.496 6.703 3.351 6.703 3.351C77 75.184 84.302 75.901 84.241 89.196zm32.094-13.413c-.066 9.284-7.844 13.175-15.267 13.232-7.486.06-14.969-3.951-14.969-12.933v-6.526h9.82v6.827c.479 2.692 2.872 3.83 5.029 3.83 2.156 0 4.971-.716 5.028-3.89.06-2.334.241-4.61-4.369-7.128-.361-.177-2.896-1.46-5.99-2.812-.957-.419-9.997-2.812-9.997-15.505 0-1.979.777-14.49 15.448-14.49 11.015 0 14.667 5.986 14.667 14.49v5.029h-9.879v-5.39c0-1.855-1.256-5.207-4.788-5.207-3.354-.003-5.27 2.273-5.27 5.086 0 4.791 1.678 4.912 3.472 6.348 2.575 1.497 6.706 3.351 6.706 3.351 3.114 1.678 10.419 2.397 10.359 15.689z" fill="#d1d9e0"/></g></svg>